<?xml version="1.0" encoding="UTF-8" standalone="no"?>
<svg
   xmlns:dc="http://purl.org/dc/elements/1.1/"
   xmlns:cc="http://creativecommons.org/ns#"
   xmlns:rdf="http://www.w3.org/1999/02/22-rdf-syntax-ns#"
   xmlns:svg="http://www.w3.org/2000/svg"
   xmlns="http://www.w3.org/2000/svg"
   xmlns:xlink="http://www.w3.org/1999/xlink"
   xmlns:sodipodi="http://sodipodi.sourceforge.net/DTD/sodipodi-0.dtd"
   xmlns:inkscape="http://www.inkscape.org/namespaces/inkscape"
   id="svg1767"
   version="1.1"
   viewBox="0 0 35.138935 12.004388"
   height="12.004388mm"
   width="35.138935mm"
   sodipodi:docname="ring_gray_new.svg"
   inkscape:version="0.92.5 (2060ec1f9f, 2020-04-08)">
  <sodipodi:namedview
     pagecolor="#ffffff"
     bordercolor="#666666"
     borderopacity="1"
     objecttolerance="10"
     gridtolerance="10"
     guidetolerance="10"
     inkscape:pageopacity="0"
     inkscape:pageshadow="2"
     inkscape:window-width="1920"
     inkscape:window-height="1022"
     id="namedview16"
     showgrid="false"
     inkscape:snap-midpoints="false"
     inkscape:zoom="63.733311"
     inkscape:cx="46.6048"
     inkscape:cy="35.362809"
     inkscape:window-x="1080"
     inkscape:window-y="417"
     inkscape:window-maximized="1"
     inkscape:current-layer="svg1767" />
  <defs
     id="defs1761">
    <linearGradient
       gradientUnits="userSpaceOnUse"
       id="linearGradient1009"
       xlink:href="#linearGradient5936"
       gradientTransform="translate(102.4187,-84.577384)" />
    <linearGradient
       id="linearGradient5936"
       gradientTransform="matrix(1,0,0,1,0,0)">
      <stop
         style="stop-color:#56666b;stop-opacity:1;"
         offset="0"
         id="stop5934" />
    </linearGradient>
    <linearGradient
       id="linearGradient2212"
       gradientTransform="matrix(0.6126853,0,0,1.6321593,102.4187,-84.577384)"
       x1="-149.9634"
       y1="52.164467"
       x2="-143.56374"
       y2="52.164467"
       gradientUnits="userSpaceOnUse">
      <stop
         style="stop-color:#9b0014;stop-opacity:1;"
         offset="0"
         id="stop2210" />
    </linearGradient>
    <linearGradient
       inkscape:collect="always"
       xlink:href="#linearGradient5936"
       id="linearGradient18"
       gradientTransform="matrix(0.85166022,0,0,1.1741772,102.4187,-84.577384)"
       x1="-120.2577"
       y1="72.379948"
       x2="-110.73156"
       y2="72.379948"
       gradientUnits="userSpaceOnUse" />
    <linearGradient
       inkscape:collect="always"
       xlink:href="#linearGradient5936"
       id="linearGradient20"
       gradientTransform="matrix(0.85076138,0,0,1.1754177,102.4187,-84.577384)"
       x1="-99.864324"
       y1="72.299917"
       x2="-90.348234"
       y2="72.299917"
       gradientUnits="userSpaceOnUse" />
    <linearGradient
       inkscape:collect="always"
       xlink:href="#linearGradient5936"
       id="linearGradient22"
       gradientTransform="matrix(0.85441773,0,0,1.1703877,102.4187,-84.577384)"
       x1="-88.629441"
       y1="72.449775"
       x2="-78.743407"
       y2="72.449775"
       gradientUnits="userSpaceOnUse" />
    <clipPath
       clipPathUnits="userSpaceOnUse"
       id="clipPath34">
      <use
         x="0"
         y="0"
         xlink:href="#g30"
         id="use36"
         width="100%"
         height="100%" />
    </clipPath>
  </defs>
  <metadata
     id="metadata1764">
    <rdf:RDF>
      <cc:Work
         rdf:about="">
        <dc:format>image/svg+xml</dc:format>
        <dc:type
           rdf:resource="http://purl.org/dc/dcmitype/StillImage" />
        <dc:title></dc:title>
      </cc:Work>
    </rdf:RDF>
  </metadata>
  <path
     inkscape:connector-curvature="0"
     id="path7842"
     style="font-weight:bold;font-size:17.52689934px;line-height:1.25;font-family:Consolas;-inkscape-font-specification:'Consolas Bold';letter-spacing:0px;word-spacing:0px;fill:url(#linearGradient18);stroke-width:0.438173"
     d="M 5.639759,11.59488 4.065077,8.000496 Q 3.842567,7.487013 3.440339,7.230271 3.046668,6.964971 2.50751,6.964971 H 2.10528 V 11.59488 H 0 V 0.409499 h 3.260619 q 0.924271,0 1.67738,0.162603 0.753109,0.154045 1.283708,0.522042 0.5306,0.367996 0.813016,0.958502 0.290974,0.590506 0.290974,1.446312 0,0.61618 -0.17972,1.095431 Q 6.966258,5.07364 6.641052,5.424521 6.315846,5.766843 5.862269,5.980795 5.41725,6.194746 4.88665,6.280327 5.297437,6.365907 5.639759,6.75102 5.982082,7.127574 6.324404,7.846451 L 8.113038,11.59488 Z M 5.117718,3.704351 q 0,-0.821573 -0.522042,-1.181012 Q 4.073635,2.163901 3.029552,2.163901 H 2.10528 v 3.157923 h 0.855807 q 0.48781,0 0.88148,-0.102697 Q 4.244796,5.116431 4.527212,4.911037 4.809628,4.705644 4.963673,4.406112 5.117718,4.098022 5.117718,3.704351 Z" />
  <path
     inkscape:connector-curvature="0"
     id="path7845"
     style="font-weight:bold;font-size:17.52689934px;line-height:1.25;font-family:Consolas;-inkscape-font-specification:'Consolas Bold';letter-spacing:0px;word-spacing:0px;fill:url(#linearGradient20);stroke-width:0.438173"
     d="M 22.986495,11.5906 19.991175,4.915315 19.374995,3.477562 V 8.116029 11.5906 H 17.45799 V 0.405219 h 2.584533 l 3.055227,6.718075 0.539157,1.309383 V 3.494678 0.405219 h 1.917005 V 11.5906 Z" />
  <path
     inkscape:connector-curvature="0"
     id="path7847"
     style="font-weight:bold;font-size:17.52689934px;line-height:1.25;font-family:Consolas;-inkscape-font-specification:'Consolas Bold';letter-spacing:0px;word-spacing:0px;fill:url(#linearGradient22);stroke-width:0.438173"
     d="M 31.15944,6.857994 V 5.120709 h 3.979497 v 5.964966 q -0.770226,0.359438 -1.608915,0.530599 -0.83869,0.171161 -1.822866,0.171161 -1.163896,0 -2.096724,-0.359438 Q 28.686161,11.068559 28.035749,10.35824 27.385337,9.647921 27.034456,8.59528 26.692134,7.542639 26.692134,6.156234 q 0,-1.394964 0.359438,-2.498953 0.367997,-1.103989 1.0612,-1.865657 0.70176,-0.770225 1.711611,-1.172453 1.018409,-0.402229 2.319233,-0.402229 0.770226,0 1.497661,0.136929 0.735992,0.128371 1.463427,0.35088 V 2.784359 Q 34.471408,2.484827 33.701183,2.29655 32.939516,2.099715 32.160733,2.099715 q -0.787342,0 -1.394964,0.273857 -0.599064,0.273858 -1.00985,0.778784 -0.402229,0.504925 -0.616181,1.240918 -0.205393,0.735993 -0.205393,1.660263 0,0.890038 0.162603,1.608915 0.162603,0.710318 0.522042,1.215244 0.367996,0.496367 0.941386,0.761667 0.57339,0.2653 1.394963,0.2653 0.196836,0 0.342323,-0.0086 0.145486,-0.01712 0.273857,-0.04279 0.128371,-0.02567 0.239626,-0.05991 0.119813,-0.03423 0.248184,-0.07702 V 6.857952 Z" />
  <g
     id="g32"
     clip-path="url(#clipPath34)">
    <g
       inkscape:label="Clip"
       id="g30">
      <g
         id="g39">
        <path
           style="fill:#00117c;fill-opacity:1;stroke:none;stroke-width:0.154673;stroke-linecap:round"
           d="M 12.159454,0.78858 A 0.17571703,0.17571703 0 0 0 12.055068,0.8971 h 0.0057 c 0.009,-0.026 0.02154,-0.0505 0.04134,-0.0703 0.01659,-0.0166 0.03606,-0.0294 0.05736,-0.0382 z"
           id="path96" />
        <path
           style="fill:#00117c;fill-opacity:1;stroke:none;stroke-width:0.154673;stroke-linecap:round"
           d="m 12.054034,1.00666 a 0.17571703,0.17571703 0 0 0 0.17105,0.12195 c -0.0462,-5.29e-4 -0.0903,-0.0185 -0.122991,-0.0512 -0.0199,-0.0198 -0.03274,-0.0446 -0.04134,-0.0708 z"
           id="path94" />
        <path
           style="fill:#00117c;fill-opacity:1;stroke:none;stroke-width:0.154673;stroke-linecap:round"
           d="m 12.367711,1.05476 c -0.005,0.007 -0.009,0.0161 -0.01551,0.0227 h 5.29e-4 c 0.007,-0.007 0.01048,-0.0148 0.01498,-0.0227 z"
           id="path92" />
        <path
           style="fill:#00117c;fill-opacity:1;stroke:none;stroke-width:0.154673;stroke-linecap:round"
           d="m 12.296911,1.11416 -5.29e-4,5.29e-4 h 0.0011 z"
           id="path90" />
        <path
           style="fill:#00117c;fill-opacity:1;stroke:none;stroke-width:0.154673;stroke-linecap:round"
           d="m 12.288611,1.11716 c -0.01881,0.007 -0.03841,0.0116 -0.05891,0.0119 a 0.17571703,0.17571703 0 0 0 0.04496,-0.008 z"
           id="path88" />
        <path
           style="fill:#00117c;fill-opacity:1;stroke:none;stroke-width:0.154673;stroke-linecap:round"
           d="m 15.810877,1.24583 c 0.0155,0.0156 0.02747,0.034 0.03617,0.0537 a 0.17623953,0.17623953 0 0 0 -0.0036,-0.008 0.17571703,0.17571703 0 0 0 -5.29e-4,-0.002 0.17623953,0.17623953 0 0 0 -0.0181,-0.0284 0.17571703,0.17571703 0 0 0 -0.01344,-0.0155 z"
           id="path86" />
        <path
           style="fill:#00117c;fill-opacity:1;stroke:none;stroke-width:0.154673;stroke-linecap:round"
           d="m 15.850157,1.30733 c 0.007,0.0181 0.01066,0.0372 0.01138,0.0568 a 0.17623953,0.17623953 0 0 0 -0.01138,-0.0568 z"
           id="path84" />
        <path
           style="fill:#00117c;fill-opacity:1;stroke:none;stroke-width:0.154673;stroke-linecap:round"
           d="m 15.861007,1.37653 c -7.94e-4,0.0204 -0.004,0.0408 -0.01188,0.0594 a 0.17623953,0.17623953 0 0 0 0.01188,-0.0594 z"
           id="path82" />
        <path
           style="fill:#00117c;fill-opacity:1;stroke:none;stroke-width:0.154673;stroke-linecap:round"
           d="m 15.846027,1.44263 c -0.008,0.0175 -0.01884,0.0333 -0.03204,0.0475 a 0.17623953,0.17623953 0 0 0 0.03204,-0.0475 z"
           id="path80" />
        <path
           style="fill:#ffffff;fill-opacity:1;stroke:none;stroke-width:0.154673;stroke-linecap:round"
           d="m 11.028751,2.46375 c 0.047,0 0.0924,0.0185 0.125573,0.0517 0.0333,0.0333 0.05168,0.0781 0.05168,0.12506 0,0.0471 -0.01847,0.0924 -0.05168,0.12557 -0.0332,0.0332 -0.0786,0.0517 -0.125573,0.0517 -0.047,0 -0.0919,-0.0185 -0.125056,-0.0517 -0.0332,-0.0332 -0.05219,-0.0785 -0.05219,-0.12557 0,-0.047 0.019,-0.0918 0.05219,-0.12506 0.0332,-0.0332 0.0781,-0.0517 0.125056,-0.0517 z"
           id="path78" />
        <path
           style="fill:#ffffff;fill-opacity:1;stroke:none;stroke-width:0.154673;stroke-linecap:round"
           d="m 9.77353,3.18464 c 0.047,0 0.0918,0.0185 0.125058,0.0517 0.0332,0.0333 0.05219,0.0781 0.05219,0.12505 0,0.0471 -0.019,0.0924 -0.05219,0.12558 -0.0332,0.0333 -0.0781,0.0517 -0.125058,0.0517 -0.047,0 -0.0924,-0.0185 -0.125574,-0.0517 -0.0332,-0.0332 -0.05168,-0.0785 -0.05168,-0.12558 0,-0.047 0.01839,-0.0917 0.05168,-0.12505 0.0332,-0.0332 0.07861,-0.0517 0.125574,-0.0517 z"
           id="path76" />
        <path
           style="fill:#00117c;fill-opacity:1;stroke:none;stroke-width:0.154673;stroke-linecap:round"
           d="m 14.1128,3.18964 a 0.17571703,0.17571703 0 0 0 -0.0021,0.004 0.17571703,0.17571703 0 0 0 -0.02791,0.0775 l 0.0067,-0.002 c 0.0021,-0.028 0.01154,-0.0537 0.02585,-0.0775 z"
           id="path74" />
        <path
           style="fill:#ffffff;fill-opacity:1;stroke:none;stroke-width:0.154673;stroke-linecap:round"
           d="m 15.418664,3.88004 c 0.047,0 0.09229,0.019 0.125574,0.0522 0.0333,0.0333 0.05168,0.0781 0.05168,0.12506 0,0.0471 -0.01847,0.0919 -0.05168,0.12506 -0.0333,0.0333 -0.07859,0.0522 -0.125574,0.0522 -0.0471,0 -0.09181,-0.0189 -0.125058,-0.0522 -0.0333,-0.0332 -0.05219,-0.078 -0.05219,-0.12506 0,-0.047 0.019,-0.0918 0.05219,-0.12506 0.0332,-0.0332 0.07801,-0.0522 0.125058,-0.0522 z"
           id="path72" />
        <path
           style="fill:#ffffff;fill-opacity:1;stroke:none;stroke-width:0.154673;stroke-linecap:round"
           d="m 16.169523,4.992631 c 0.047,0 0.0919,0.0185 0.125058,0.0517 0.0333,0.0333 0.05219,0.0786 0.05219,0.12557 0,0.0471 -0.019,0.0919 -0.05219,0.12506 -0.0332,0.0333 -0.0781,0.0522 -0.125058,0.0522 -0.047,0 -0.0924,-0.0189 -0.125574,-0.0522 -0.0333,-0.0332 -0.05168,-0.078 -0.05168,-0.12506 0,-0.047 0.01847,-0.0923 0.05168,-0.12557 0.0332,-0.0332 0.0786,-0.0517 0.125574,-0.0517 z"
           id="path70" />
        <path
           style="fill:#ffffff;fill-opacity:1;stroke:none;stroke-width:0.154673;stroke-linecap:round"
           d="m 10.048448,5.54144 c 0.0471,0 0.0918,0.0185 0.125058,0.0517 0.0333,0.0332 0.05219,0.0786 0.05219,0.12558 0,0.047 -0.01889,0.0918 -0.05219,0.12505 -0.0332,0.0332 -0.078,0.0517 -0.125058,0.0517 -0.047,0 -0.09229,-0.0185 -0.125574,-0.0517 -0.0333,-0.0332 -0.05167,-0.0781 -0.05167,-0.12505 0,-0.047 0.01828,-0.0924 0.05167,-0.12558 0.0332,-0.0332 0.07859,-0.0517 0.125574,-0.0517 z"
           id="path68" />
        <path
           style="fill:#00117c;fill-opacity:1;stroke:none;stroke-width:0.154673;stroke-linecap:round"
           d="m 14.081794,5.91712 -0.0925,0.0181 a 0.17571703,0.17571703 0 0 0 -0.0036,0 0.17571703,0.17571703 0 0 0 -0.134358,0.26872 l 0.0026,-0.001 c -0.01701,-0.0276 -0.02894,-0.058 -0.02894,-0.091 0,-0.047 0.01889,-0.0919 0.05219,-0.12506 0.0332,-0.0333 0.0786,-0.0522 0.125574,-0.0522 0.047,0 0.0919,0.019 0.125055,0.0522 0.02561,0.0254 0.03939,0.0586 0.04599,0.0935 l 0.149863,-0.0579 c -1.51e-4,-0.003 -0.0021,-0.006 -0.0021,-0.009 0,-0.003 0.0011,-0.005 0.0021,-0.008 l -0.240887,-0.0889 z"
           id="path66" />
        <path
           style="fill:#ffffff;fill-opacity:1;stroke:none;stroke-width:0.154673;stroke-linecap:round"
           d="m 9.81177,6.10574 c 0.047,0 0.09231,0.0185 0.125574,0.0517 0.0333,0.0332 0.05168,0.0786 0.05168,0.12557 0,0.047 -0.01828,0.0919 -0.05168,0.12506 -0.0332,0.0332 -0.0786,0.0517 -0.125574,0.0517 -0.0471,0 -0.0918,-0.0185 -0.125055,-0.0517 -0.0333,-0.0332 -0.05219,-0.0781 -0.05219,-0.12506 0,-0.047 0.01889,-0.0924 0.05219,-0.12557 0.0332,-0.0332 0.078,-0.0517 0.125055,-0.0517 z"
           id="path64" />
        <path
           style="fill:#00117c;fill-opacity:1;stroke:none;stroke-width:0.154673;stroke-linecap:round"
           d="m 13.89576,6.25044 c 0.0059,0.004 0.0114,0.01 0.0181,0.0134 0.0011,7.94e-4 0.0032,7.94e-4 0.0052,0.002 -0.008,-0.004 -0.01566,-0.01 -0.02326,-0.015 z"
           id="path62" />
        <path
           style="fill:#00117c;fill-opacity:1;stroke:none;stroke-width:0.154673;stroke-linecap:round"
           d="m 13.95674,6.28044 -0.0021,0.001 0.02585,0.0108 -0.0021,-0.008 c -0.0068,-10e-4 -0.01423,-0.002 -0.02119,-0.004 z"
           id="path60" />
        <path
           style="fill:#ffffff;fill-opacity:1;stroke:none;stroke-width:0.154673;stroke-linecap:round"
           d="m 11.07061,7.71963 c 0.0471,0 0.0924,0.019 0.125574,0.0522 0.0334,0.0332 0.05219,0.0781 0.05219,0.12506 0,0.047 -0.01889,0.0924 -0.05219,0.12557 -0.0332,0.0332 -0.0785,0.0517 -0.125574,0.0517 -0.047,0 -0.0919,-0.0185 -0.125056,-0.0517 -0.0333,-0.0332 -0.05167,-0.0786 -0.05167,-0.12557 0,-0.047 0.01836,-0.0918 0.05167,-0.12506 0.0332,-0.0332 0.0781,-0.0522 0.125056,-0.0522 z"
           id="path58" />
        <path
           style="fill:#ffffff;fill-opacity:1;stroke:none;stroke-width:0.154673;stroke-linecap:round"
           d="m 15.612452,7.96354 c 0.0471,0 0.0918,0.0185 0.125058,0.0517 0.0333,0.0333 0.05219,0.0786 0.05219,0.12557 0,0.0471 -0.019,0.0919 -0.05219,0.12506 -0.0333,0.0332 -0.078,0.0522 -0.125058,0.0522 -0.047,0 -0.0923,-0.019 -0.125573,-0.0522 -0.0333,-0.0332 -0.05168,-0.078 -0.05168,-0.12506 0,-0.047 0.01847,-0.0923 0.05168,-0.12557 0.0333,-0.0332 0.0786,-0.0517 0.125573,-0.0517 z"
           id="path56" />
        <path
           style="fill:#ffffff;fill-opacity:1;stroke:none;stroke-width:0.154673;stroke-linecap:round"
           d="m 9.657261,8.58624 c 0.047,0 0.09181,0.019 0.125055,0.0522 0.0332,0.0332 0.0522,0.0781 0.0522,0.12506 0,0.047 -0.019,0.0924 -0.0522,0.12558 -0.0332,0.0332 -0.07811,0.0517 -0.125055,0.0517 -0.047,0 -0.0923,-0.0185 -0.125574,-0.0517 -0.0332,-0.0332 -0.05168,-0.0786 -0.05168,-0.12558 0,-0.047 0.01847,-0.0919 0.05168,-0.12506 0.0333,-0.0332 0.07859,-0.0522 0.125574,-0.0522 z"
           id="path52" />
        <path
           style="fill:#00117c;fill-opacity:1;stroke:none;stroke-width:0.154673;stroke-linecap:round"
           d="m 13.665802,8.63794 c 0,0.0291 0.009,0.056 0.02273,0.0811 -0.01331,-0.0252 -0.02273,-0.052 -0.02273,-0.0811 z"
           id="path50" />
        <path
           style="fill:#00117c;fill-opacity:1;stroke:none;stroke-width:0.154673;stroke-linecap:round"
           d="m 13.688532,8.71964 -0.0067,10e-4 a 0.17571703,0.17571703 0 0 0 0.03772,0.0476 0.17571703,0.17571703 0 0 0 0.01757,0.0139 l 0.0021,-0.005 c -0.007,-0.005 -0.01469,-0.008 -0.02066,-0.0139 -0.01259,-0.0126 -0.02167,-0.028 -0.02997,-0.0434 z"
           id="path48" />
        <path
           style="fill:#00117c;fill-opacity:1;stroke:none;stroke-width:0.154673;stroke-linecap:round"
           d="m 10.781733,9.10721 c 0.0131,0.0249 0.02201,0.0515 0.02222,0.0801 -2.6e-4,-0.0285 -0.009,-0.0553 -0.02222,-0.0801 z"
           id="path46" />
        <path
           style="fill:#00117c;fill-opacity:1;stroke:none;stroke-width:0.154673;stroke-linecap:round"
           d="m 12.991416,10.932941 a 0.17597146,0.17597146 0 0 0 -0.0036,0.35192 c -0.0428,-0.003 -0.08361,-0.0191 -0.114204,-0.0496 -0.0332,-0.0332 -0.0522,-0.0786 -0.0522,-0.12558 0,-0.047 0.019,-0.0919 0.0522,-0.12506 0.0327,-0.0326 0.0764,-0.051 0.122473,-0.0517 a 0.17571703,0.17571703 0 0 0 -0.0041,0 z"
           id="path44" />
      </g>
    </g>
  </g>
  <g
     id="g147">
    <path
       transform="scale(0.26458333)"
       id="path104"
       d="M 31.703125 0 C 31.416334 0.0037795276 31.100369 0.1257324 30.892578 0.33398438 C 30.60609 0.62047257 30.616113 0.96043228 30.933594 1.6875 C 31.717963 3.4842118 33.500182 5.0035266 35.751953 5.7949219 C 36.205723 5.9544179 36.354792 6.0432265 36.439453 6.2070312 C 36.498754 6.3219289 36.688143 6.4984314 36.861328 6.5996094 C 37.222273 6.8097511 38.523616 7.3415399 39.423828 7.6484375 C 39.760584 7.7633351 40.035156 7.899329 40.035156 7.9492188 C 40.035126 7.9991085 39.604916 8.212288 39.078125 8.4238281 C 37.403345 9.0959415 36.716898 9.6627934 36.429688 10.615234 C 36.224081 11.297212 36.085465 12.44088 36.119141 13.189453 C 36.188646 14.736603 36.635666 15.146849 39.847656 16.609375 C 41.783235 17.490647 42.605884 17.897135 42.671875 18.003906 C 42.766363 18.156977 42.02143 18.427124 38.105469 19.666016 C 36.67042 20.120012 35.974813 20.475726 35.652344 20.917969 C 35.540848 21.07104 35.370257 21.471611 35.275391 21.808594 C 35.128745 22.328241 35.103452 22.596493 35.101562 23.574219 C 35.099563 24.663743 35.109509 24.746726 35.287109 25.091797 C 35.666037 25.828465 36.664869 26.41938 39.330078 27.484375 C 40.187351 27.8268 40.917945 28.136688 40.953125 28.171875 C 41.048709 28.267497 40.799675 28.400944 39.306641 29.060547 C 37.612883 29.809158 37.154941 30.038433 36.544922 30.441406 C 35.906072 30.863428 35.51742 31.249517 35.349609 31.628906 C 35.060098 32.283747 35.101688 34.009922 35.431641 34.96875 C 35.832951 36.135188 36.353111 36.328264 39.611328 36.529297 C 41.413709 36.640415 42.42984 36.744283 42.568359 36.830078 C 42.702533 36.913228 42.620476 37.157742 42.111328 38.203125 C 41.278165 39.912454 41.264594 40.078993 41.927734 40.404297 L 42.125 40.472656 C 41.909945 40.741381 41.680169 41.002455 41.427734 41.259766 C 40.614259 42.088918 39.848295 42.668462 39.027344 43.078125 C 38.023426 43.579139 37.267643 43.708044 36.345703 43.533203 C 36.079246 43.482557 35.909553 43.484449 35.783203 43.544922 C 35.55114 43.650749 35.371094 44.100228 35.371094 44.574219 C 35.371094 45.018313 35.525681 45.211593 35.941406 45.28125 C 36.096745 45.307707 36.257631 45.340414 36.298828 45.357422 C 36.339609 45.37254 36.790352 45.376446 37.300781 45.361328 C 38.709113 45.320131 39.639214 44.986755 40.976562 44.042969 C 41.828283 43.441914 43.390132 41.892742 43.933594 41.111328 L 43.935547 41.109375 L 44.574219 41.333984 C 45.016227 41.437543 45.277859 41.368021 45.40625 41.113281 C 45.493557 40.940557 45.585016 40.347924 45.708984 39.164062 L 45.185547 38.974609 C 45.170429 38.993507 45.162912 39.020543 45.142578 39.039062 C 45.017098 39.164921 44.84547 39.234375 44.667969 39.234375 C 44.490709 39.234375 44.320634 39.164921 44.195312 39.039062 C 44.069832 38.913582 43.998047 38.742355 43.998047 38.564453 C 43.998047 38.386815 44.06987 38.217504 44.195312 38.091797 C 44.321171 37.966317 44.49049 37.896484 44.667969 37.896484 C 44.845607 37.896484 45.017196 37.966317 45.142578 38.091797 C 45.268436 38.217655 45.337891 38.386967 45.337891 38.564453 C 45.337891 38.572012 45.333984 38.580332 45.333984 38.587891 L 45.708984 38.724609 C 45.693866 37.834909 45.409267 36.620963 44.964844 35.730469 C 44.667395 35.134275 44.349868 34.673917 44.005859 34.279297 L 40.816406 34.826172 C 40.793729 34.967148 40.740681 35.101456 40.638672 35.203125 C 40.513192 35.328605 40.343495 35.400391 40.166016 35.400391 C 39.988378 35.400391 39.817204 35.328605 39.691406 35.203125 C 39.565926 35.077645 39.496094 34.907955 39.496094 34.730469 C 39.496094 34.552831 39.565586 34.381226 39.691406 34.255859 C 39.816887 34.130379 39.988438 34.060547 40.166016 34.060547 C 40.343653 34.060547 40.512972 34.130379 40.638672 34.255859 C 40.686256 34.303481 40.71897 34.361339 40.75 34.419922 L 43.669922 33.919922 C 43.259053 33.540155 42.802173 33.249318 42.251953 33.039062 C 41.972268 32.932102 41.744103 32.815202 41.744141 32.779297 C 41.744141 32.745281 42.134305 32.528725 42.613281 32.300781 C 43.815511 31.729313 44.477854 31.298982 44.958984 30.779297 C 45.487132 30.208853 45.562508 29.90335 45.511719 28.541016 C 45.485262 27.80284 45.383037 27.147104 45.238281 26.625 L 44.144531 27.044922 C 44.144981 27.05626 44.152344 27.06288 44.152344 27.074219 C 44.152344 27.251857 44.080521 27.421587 43.955078 27.546875 C 43.829598 27.672355 43.659863 27.744141 43.482422 27.744141 C 43.304784 27.744141 43.133195 27.672355 43.007812 27.546875 C 42.881954 27.421395 42.8125 27.251664 42.8125 27.074219 C 42.8125 26.896581 42.882294 26.725018 43.007812 26.599609 C 43.133293 26.474129 43.304845 26.404297 43.482422 26.404297 C 43.659682 26.404259 43.829794 26.474129 43.955078 26.599609 C 43.970196 26.614727 43.977322 26.638486 43.994141 26.65625 L 45.113281 26.226562 C 45.058894 26.08861 45.002571 25.95487 44.939453 25.855469 C 44.555601 25.250177 43.585026 24.618885 42.054688 23.978516 C 41.496716 23.744941 40.99332 23.511957 40.9375 23.460938 C 40.801437 23.336591 40.91483 23.28063 42.123047 22.867188 C 43.672615 22.336428 44.690609 21.758881 45.361328 21.03125 C 45.708667 20.654431 45.922496 20.250458 46.052734 19.71875 L 44.880859 19.285156 L 44.878906 19.285156 C 44.863788 19.307833 44.856271 19.332287 44.835938 19.351562 C 44.710457 19.477043 44.538868 19.548828 44.361328 19.548828 C 44.18369 19.548828 44.013993 19.477043 43.888672 19.351562 C 43.762814 19.226082 43.691406 19.056393 43.691406 18.878906 C 43.691406 18.701268 43.763229 18.529664 43.888672 18.404297 C 44.014152 18.278817 44.183849 18.208984 44.361328 18.208984 C 44.538966 18.208984 44.710555 18.278817 44.835938 18.404297 C 44.961796 18.529777 45.03125 18.701382 45.03125 18.878906 C 45.03125 18.886465 45.027344 18.894785 45.027344 18.902344 L 46.125 19.308594 C 46.180899 18.931019 46.216381 18.5111 46.216797 17.970703 C 46.217409 16.321582 45.967682 15.584494 45.169922 14.880859 C 45.151024 14.865741 45.120019 14.84318 45.099609 14.826172 L 42.548828 15.466797 C 42.53749 15.628183 42.474235 15.781628 42.359375 15.896484 C 42.233517 16.021965 42.064186 16.09375 41.886719 16.09375 C 41.709081 16.09375 41.537454 16.021965 41.412109 15.896484 C 41.286629 15.771004 41.216797 15.601311 41.216797 15.423828 C 41.216797 15.24619 41.286591 15.074589 41.412109 14.949219 C 41.53759 14.823738 41.709179 14.753906 41.886719 14.753906 C 42.064357 14.753906 42.234065 14.823738 42.359375 14.949219 C 42.393391 14.983234 42.414987 15.030313 42.441406 15.072266 L 44.691406 14.507812 C 44.069908 14.054836 43.182865 13.51816 42.171875 12.996094 C 41.487973 12.642708 40.927734 12.327539 40.927734 12.294922 C 40.927693 12.224245 40.961749 12.212545 42.703125 11.585938 C 44.895482 10.797415 45.568622 10.411689 45.845703 9.7851562 C 45.98668 9.46692 45.993188 9.344379 45.953125 8.1386719 C 45.952127 8.1084357 45.949092 8.0967058 45.945312 8.0683594 C 45.937375 8.079698 45.933214 8.0902239 45.921875 8.1015625 C 45.796395 8.2270428 45.625179 8.296875 45.447266 8.296875 C 45.269628 8.296875 45.100301 8.2270428 44.974609 8.1015625 C 44.848751 7.9760822 44.779297 7.8044775 44.779297 7.6269531 C 44.779297 7.4493153 44.849091 7.280004 44.974609 7.1542969 C 45.100468 7.0288166 45.269794 6.9570312 45.447266 6.9570312 C 45.603738 6.9570312 45.749624 7.0208729 45.869141 7.1191406 L 45.869141 7.1171875 C 45.850243 7.1058489 45.830276 7.0909754 45.810547 7.078125 L 45.859375 7.0410156 C 45.79637 6.4058244 45.709775 5.886331 45.558594 5.5683594 C 45.26757 4.955131 44.274711 4.4703187 42.832031 4.2363281 C 42.375752 4.1622494 41.296197 4.1330026 40.230469 4.1386719 C 40.263351 4.1235538 40.291462 4.0965813 40.322266 4.0761719 C 40.344943 4.0572742 40.372282 4.0497063 40.392578 4.0292969 C 40.392578 4.0292969 40.394531 4.0273438 40.394531 4.0273438 C 40.520012 3.9014855 40.591797 3.7321779 40.591797 3.5546875 C 40.591797 3.3766718 40.52039 3.2054451 40.394531 3.0800781 C 40.33043 3.0158262 40.254495 2.9688067 40.171875 2.9355469 C 40.091069 2.9015311 40.004797 2.8847656 39.916016 2.8847656 C 39.82852 2.8847656 39.743319 2.9037988 39.664062 2.9355469 C 39.582462 2.9695626 39.505167 3.0185352 39.441406 3.0820312 C 39.315926 3.2075116 39.244141 3.3768229 39.244141 3.5546875 C 39.244141 3.7323253 39.315964 3.9035142 39.441406 4.0292969 C 39.491712 4.0795646 39.554825 4.1127832 39.617188 4.1445312 C 39.082728 4.1558698 38.577884 4.174654 38.210938 4.2109375 C 37.004614 4.3254572 36.919902 4.3183107 36.283203 4.0605469 C 35.237861 3.6374288 34.331249 3.0884591 33.701172 2.4960938 C 33.167351 1.9942481 33.073374 1.860983 32.671875 1.0351562 C 32.274647 0.21817356 32.204497 0.11753883 31.978516 0.04296875 C 31.894232 0.016512057 31.799881 0.0011972195 31.703125 0.001953125 L 31.703125 0 z "
       style="fill:#3465a4;fill-opacity:1;stroke:none;stroke-width:0.58459085;stroke-linecap:round" />
    <g
       id="g132"
       style="">
      <g
         id="g152">
        <path
           id="path98"
           d="m 14.037893,0.26096 a 0.17571703,0.17571703 0 0 0 -0.01344,5.3e-4 0.17571703,0.17571703 0 0 0 -0.06305,0.0165 l -1.78232,0.50488 a 0.17571703,0.17571703 0 0 0 -0.01963,0.006 c 0.0213,-0.009 0.0442,-0.0134 0.0677,-0.0134 0.0471,0 0.0919,0.0185 0.125055,0.0517 0.0334,0.0332 0.05219,0.078 0.05219,0.12506 0,0.0318 -0.01148,0.0613 -0.02739,0.0884 l 0.03617,0.0413 1.123447,-0.31833 0.336928,-0.26407 c -0.007,-0.0194 -0.01241,-0.04 -0.01241,-0.061 0,-0.047 0.019,-0.0919 0.05219,-0.12506 0.0331,-0.0331 0.0777,-0.0521 0.124539,-0.0522 z"
           style="fill:#4e9a06;fill-opacity:1;stroke:none;stroke-width:0.154673;stroke-linecap:round" />
        <path
           id="path102"
           d="m 14.04151,0.25993 0.0011,0.001 a 0.17571703,0.17571703 0 0 0 -0.0041,0 c 0.0468,1.4e-4 0.092,0.0191 0.125058,0.0522 0.0332,0.0332 0.05167,0.0781 0.05167,0.12506 0,0.047 -0.01847,0.0924 -0.05167,0.12558 -0.0332,0.0332 -0.07861,0.0517 -0.125574,0.0517 -0.0351,0 -0.06742,-0.013 -0.09612,-0.032 l -0.129191,0.10129 0.20257,-0.0574 1.410251,0.79736 -1.245921,1.67587 0.01498,0.017 c -0.02061,0.009 -0.03961,0.0216 -0.05581,0.0377 0.0332,-0.0332 0.0781,-0.0517 0.125055,-0.0517 0.0469,0 0.09241,0.0185 0.125574,0.0517 0.0333,0.0333 0.05168,0.0781 0.05168,0.12505 0,0.047 -0.01847,0.0924 -0.05168,0.12558 -0.0332,0.0332 -0.0786,0.0517 -0.125574,0.0517 -0.047,0 -0.0918,-0.0185 -0.125055,-0.0517 -0.009,-0.009 -0.01471,-0.0211 -0.0217,-0.032 l -0.01291,0.004 a 0.17571703,0.17571703 0 0 0 0.118338,0.0853 l 1.06712,0.71882 0.623218,0.92087 -1.472263,0.74363 -0.154512,0.0305 0.07596,0.0279 c 0.004,-0.005 0.006,-0.0113 0.01085,-0.016 0.0332,-0.0332 0.0785,-0.0522 0.125573,-0.0522 0.047,0 0.0918,0.019 0.125058,0.0522 0.0333,0.0332 0.05219,0.0781 0.05219,0.12506 0,0.047 -0.019,0.0924 -0.05219,0.12557 -0.0118,0.0117 -0.02604,0.0195 -0.04031,0.0274 l 1.607138,-0.81184 a 0.17571703,0.17571703 0 0 0 0.151413,-0.23564 0.17571703,0.17571703 0 0 0 -0.04754,-0.078 l -0.6997,-1.036629 a 0.17571703,0.17571703 0 0 0 -0.06615,-0.0858 0.17571703,0.17571703 0 0 0 -0.03307,-0.0217 L 14.514448,3.23693 15.80791,1.49751 c -0.0331,0.032 -0.0769,0.0501 -0.12299,0.0501 -0.047,0 -0.09239,-0.0185 -0.125573,-0.0517 -0.0333,-0.0332 -0.05219,-0.0786 -0.05219,-0.12557 0,-0.047 0.019,-0.0919 0.05219,-0.12506 0.0332,-0.0332 0.07859,-0.0517 0.125573,-0.0517 0.0466,0 0.0909,0.0185 0.124024,0.0512 a 0.17571703,0.17571703 0 0 0 -0.0026,-0.003 0.17623953,0.17623953 0 0 0 -5.3e-4,0 0.17623953,0.17623953 0 0 0 -0.0062,-0.006 0.17571703,0.17571703 0 0 0 -0.0217,-0.016 0.17623953,0.17623953 0 0 0 -0.0062,-0.004 l -5.29e-4,-5.29e-4 a 0.17571703,0.17571703 0 0 0 -0.0155,-0.008 l -1.606613,-0.90956 a 0.17571703,0.17571703 0 0 0 -0.08992,-0.0357 0.17571703,0.17571703 0 0 0 -0.0078,-5.3e-4 0.17571703,0.17571703 0 0 0 -0.0098,-0.001 z"
           style="fill:#4e9a06;fill-opacity:1;stroke:none;stroke-width:0.154673;stroke-linecap:round" />
      </g>
      <path
         style="fill:#4e9a06;fill-opacity:1;stroke:none;stroke-width:0.154673;stroke-linecap:round"
         d="m 14.583077,6.16655 c 0,0 -5.29e-4,0 -5.29e-4,0 -0.02588,0.0142 -0.05369,0.0243 -0.08371,0.0243 -0.0471,0 -0.09241,-0.0185 -0.125574,-0.0517 -0.004,-0.004 -0.0064,-0.0103 -0.01035,-0.015 l -0.216006,0.0832 c -0.007,0.0101 -0.01146,0.0213 -0.02016,0.03 -0.0118,0.0118 -0.02662,0.019 -0.04082,0.0269 v 5.29e-4 l 0.01447,0.0785 1.466059,0.62063 -0.115236,1.03818 -0.991672,0.27957 0.05633,0.30851 c 0.0381,0.005 0.0743,0.0201 0.101801,0.0475 a 0.1760105,0.1760105 0 0 0 -0.03307,-0.0263 l 1.002007,-0.28112 a 0.17571703,0.17571703 0 0 0 0.163298,-0.0682 0.17571703,0.17571703 0 0 0 0.0011,-5.29e-4 0.17583283,0.17583283 0 0 0 0.04289,-0.17777 l 0.136426,-1.211299 a 0.17571703,0.17571703 0 0 0 0.0021,-0.0176 c -5.29e-4,0.0464 -0.01868,0.0911 -0.05168,0.12402 -0.0332,0.0332 -0.0785,0.0517 -0.125574,0.0517 -0.0469,0 -0.0918,-0.0185 -0.125055,-0.0517 -0.0332,-0.0333 -0.05219,-0.0786 -0.05219,-0.12557 -10e-5,-0.0471 0.019,-0.0919 0.05219,-0.12506 0.0333,-0.0333 0.0781,-0.0522 0.125055,-0.0522 0.0471,0 0.0924,0.0189 0.125574,0.0522 0.0333,0.0331 0.05148,0.0776 0.05168,0.12454 a 0.17571703,0.17571703 0 0 0 -0.137459,-0.17415 z"
         id="path100" />
      <path
         style="fill:#4e9a06;fill-opacity:1;stroke:none;stroke-width:0.154673;stroke-linecap:round"
         d="m 14.353615,8.31132 -0.530201,0.14935 a 0.17571703,0.17571703 0 0 0 -0.16278,0.15296 l 0.01035,-0.002 c 0.006,-0.0372 0.02013,-0.0728 0.04702,-0.0997 0.0332,-0.0332 0.078,-0.0517 0.125058,-0.0517 0.0469,0 0.0923,0.0185 0.125574,0.0517 0.0333,0.0333 0.05168,0.0786 0.05168,0.12557 0,0.0471 -0.01847,0.0919 -0.05168,0.12506 -0.0333,0.0332 -0.0786,0.0522 -0.125574,0.0522 -5.29e-4,0 -0.0011,-5.29e-4 -0.0021,-5.29e-4 l -5.29e-4,0.001 0.56741,0.10955 1.129128,1.094511 -1.004589,1.00976 -0.33383,-0.0212 0.263549,0.0956 c 0.005,-0.006 0.007,-0.0129 0.01188,-0.0181 0.0332,-0.0332 0.0786,-0.0517 0.125571,-0.0517 0.047,0 0.0918,0.0185 0.125058,0.0517 0.0333,0.0332 0.05219,0.0786 0.05219,0.12558 0,0.0438 -0.01794,0.0849 -0.04703,0.1173 l 1.138986,-1.14464 a 0.17571703,0.17571703 0 0 0 0.06356,-0.267681 0.17571703,0.17571703 0 0 0 -0.01963,-0.0222 c 0.0332,0.0332 0.05168,0.0781 0.05168,0.12506 0,0.047 -0.01847,0.0924 -0.05168,0.125571 -0.0332,0.0332 -0.07859,0.0517 -0.125574,0.0517 -0.047,0 -0.09191,-0.0185 -0.125058,-0.0517 -0.0333,-0.0332 -0.05219,-0.0786 -0.05219,-0.125571 0,-0.047 0.019,-0.0919 0.05219,-0.12506 0.0332,-0.0333 0.07811,-0.0522 0.125058,-0.0522 0.0469,0 0.09239,0.019 0.125574,0.0522 a 0.17571703,0.17571703 0 0 0 -0.02016,-0.0181 l -1.26297,-1.224747 a 0.1760105,0.1760105 0 0 0 -0.01138,-0.0129 c 0.033,0.0332 0.05116,0.0778 0.05116,0.12454 0,0.047 -0.01847,0.0924 -0.05168,0.12558 -0.0333,0.0332 -0.07859,0.0517 -0.125571,0.0517 -0.0471,0 -0.09191,-0.0185 -0.125058,-0.0517 -0.0333,-0.0332 -0.05219,-0.0786 -0.05219,-0.12558 0,-0.047 0.01889,-0.0919 0.05219,-0.12505 0.01259,-0.0126 0.02801,-0.0207 0.04341,-0.0289 -5.29e-4,2.6e-4 -5.29e-4,1.4e-4 -0.0016,5.29e-4 z"
         id="path54" />
    </g>
    <path
       id="path1095-6-5-4-0-6-4-9-5-8-4-2"
       d="m 13.114405,10.939941 -0.01085,0.031 c -0.0011,-10e-4 -0.0031,-10e-4 -0.0041,-0.002 0.008,0.006 0.01728,0.009 0.02429,0.016 0.0333,0.0332 0.05219,0.0781 0.05219,0.12505 0,0.047 -0.019,0.0924 -0.05219,0.12558 -0.032,0.0319 -0.07531,0.0493 -0.120406,0.0506 l 1.525489,0.0966 a 0.17571703,0.17571703 0 0 0 0.188619,-0.0408 c -0.0324,0.0291 -0.07351,0.047 -0.117305,0.047 -0.047,0 -0.0924,-0.019 -0.125574,-0.0522 -0.0333,-0.0332 -0.05168,-0.0781 -0.05168,-0.12505 0,-0.002 0.0011,-0.004 0.0011,-0.007 l -0.610298,-0.22065 h -5.29e-4 z"
       style="fill:#4e9a06;fill-opacity:1;stroke:none;stroke-width:0.154673;stroke-linecap:round" />
    <path
       style="fill:#ff2a2a;fill-opacity:1;stroke:none;stroke-width:0.154673;stroke-linecap:round"
       d="m 13.913207,0.563335 c 0,0 0,5.29e-4 0,5.29e-4 0.008,0.008 0.0192,0.0132 0.0289,0.0196 l 5.29e-4,-5.29e-4 c -0.01,-0.006 -0.021,-0.0111 -0.0295,-0.0196 z m -0.10025,0.12144 -0.27647,0.0786 -0.83147,0.65164 -0.29197,-0.33332 -0.11576,0.0331 0.32195,0.36794 -0.48525,0.37982 c 7.94e-4,0.007 0.002,0.0127 0.003,0.0202 0.005,0.003 0.01,0.005 0.0139,0.009 0.0186,0.0185 0.0316,0.0415 0.0403,0.0656 l 0.50074,-0.39274 1.42111,1.62471 a 0.17571703,0.17571703 0 0 1 0.0258,-0.0336 c 0,0 5.29e-4,-5.29e-4 5.29e-4,-5.29e-4 l 0.04079,-0.0548 -1.40249,-1.60352 z m -3.08457,0.20153 c 0.006,0.0174 0.0109,0.035 0.0109,0.0537 0,0.019 -0.005,0.0375 -0.0109,0.0553 l 1.32551,0.0114 a 0.17571703,0.17571703 0 0 1 0.001,-0.10956 z m -0.18706,0.003 a 0.05472486,0.05472486 0 0 0 -0.003,0.002 0.05472486,0.05472486 0 0 1 0.004,-0.002 0.05472486,0.05472486 0 0 0 -10e-4,0 z m 0.004,0.10181 a 0.05472486,0.05472486 0 0 0 0.004,0.001 0.05472486,0.05472486 0 0 1 -0.004,-0.001 z m 3.53673,2.27996 -1.05678,0.26561 -1.20148,0.30179 c 0.0409,0.0298 0.0767,0.0576 0.108,0.0842 l 0.46147,-0.11576 1.71101,-0.42891 a 0.17571703,0.17571703 0 0 1 -0.0222,-0.10697 z m 0.015,0.062 c 0.005,0.0149 0.0117,0.0281 0.0202,0.0413 h 5.29e-4 c -0.008,-0.0131 -0.0153,-0.0269 -0.0207,-0.0413 z m -2.83807,0.74776 c -1.8e-4,0.004 -0.002,0.007 -0.003,0.0114 h 5.29e-4 c 2.6e-4,-0.004 0.002,-0.007 0.002,-0.0114 z m 0.65319,0.92035 c -0.002,0.0374 -0.0158,0.0721 -0.0388,0.10129 h 5.3e-4 c 0.0229,-0.0293 0.0374,-0.0638 0.0388,-0.10129 z m 0.29094,0.10749 c -0.006,0.0375 -0.011,0.0755 -0.0191,0.10852 l 1.89756,0.70022 h 5.29e-4 l 0.20412,-0.0403 z m 1.64744,1.09554 -1.91513,0.73484 c 0.0124,0.0314 0.0231,0.0675 0.0336,0.10542 l 1.98541,-0.76274 -0.006,-0.003 c 0.003,7.94e-4 0.006,7.94e-4 0.009,0.002 -0.0132,-0.004 -0.0261,-0.009 -0.0382,-0.0145 0.002,0.001 0.003,0.002 0.005,0.003 a 0.17620092,0.17620092 0 0 1 -0.003,-0.002 0.17571703,0.17571703 0 0 1 -0.007,-0.004 0.17571703,0.17571703 0 0 1 -0.003,-0.002 0.17620092,0.17620092 0 0 1 -0.005,-0.003 0.17571703,0.17571703 0 0 1 -0.002,-0.002 0.17620092,0.17620092 0 0 1 -0.0129,-0.009 0.17571703,0.17571703 0 0 1 -0.009,-0.007 c 0.004,0.004 0.009,0.006 0.0134,0.009 -0.006,-0.004 -0.013,-0.008 -0.0186,-0.0134 -0.006,-0.005 -0.008,-0.0126 -0.0124,-0.0191 0.003,0.005 0.005,0.0114 0.01,0.016 a 0.17571703,0.17571703 0 0 1 -0.0233,-0.03 z m 0.23565,0.0605 c -0.026,0.0144 -0.0539,0.0248 -0.0842,0.0248 0.0303,0 0.0583,-0.01 0.0842,-0.0243 z m -0.10594,0.0279 0.3731,2.01899 0.10594,-0.0294 -0.35863,-1.93838 z m -0.31988,2.3213 -2.10633,0.3607 c 0.0308,0.0285 0.0601,0.0621 0.0889,0.0951 l 2.03812,-0.34882 a 0.17571703,0.17571703 0 0 1 -0.0207,-0.10697 z m 0.078,0.16278 v 5.29e-4 c 0.0151,0.0114 0.0308,0.0208 0.0486,0.0269 -0.0172,-0.007 -0.0336,-0.0161 -0.0486,-0.0274 z m 0.0486,0.0274 c 0.0175,0.006 0.0354,0.0107 0.0543,0.0108 v -5.29e-4 c -0.0191,-1.3e-4 -0.0371,-0.004 -0.0543,-0.0103 z m -0.0506,-0.0217 -0.62631,1.831411 -1.01648,-0.367941 c 5.29e-4,0.0363 0.004,0.0762 10e-4,0.107491 -5.29e-4,0.004 -5.29e-4,0.005 -10e-4,0.009 l 0.98082,0.3545 -0.0739,0.21601 a 0.17571703,0.17571703 0 0 1 0.008,0 l 0.1049,0.007 h 5.3e-4 l 0.0631,-0.18552 0.63563,0.22996 h 5.29e-4 l 0.38551,0.0243 -0.98599,-0.3576 0.62787,-1.83503 -0.008,-0.002 a 0.17571703,0.17571703 0 0 1 -0.0961,-0.032 z"
       id="path1095-6-5-4-0-4-1-6-6-7-3-6"
       inkscape:connector-curvature="0" />
  </g>
</svg>
