<?xml version="1.0" encoding="UTF-8" standalone="no"?>
<svg
   xmlns:osb="http://www.openswatchbook.org/uri/2009/osb"
   xmlns:dc="http://purl.org/dc/elements/1.1/"
   xmlns:cc="http://creativecommons.org/ns#"
   xmlns:rdf="http://www.w3.org/1999/02/22-rdf-syntax-ns#"
   xmlns:svg="http://www.w3.org/2000/svg"
   xmlns="http://www.w3.org/2000/svg"
   xmlns:xlink="http://www.w3.org/1999/xlink"
   width="35.138935mm"
   height="12.004406mm"
   viewBox="0 0 35.138935 12.004406"
   version="1.1"
   id="svg999">
  <defs
     id="defs993">
    <linearGradient
       id="linearGradient2212"
       osb:paint="solid"
       gradientTransform="matrix(1,0,0,1,0,0)">
      <stop
         style="stop-color:#9b0014;stop-opacity:1;"
         offset="0"
         id="stop2210" />
    </linearGradient>
    <linearGradient
       id="linearGradient918"
       osb:paint="solid"
       gradientTransform="matrix(1,0,0,1,0,0)">
      <stop
         style="stop-color:#197f9e;stop-opacity:1;"
         offset="0"
         id="stop916" />
    </linearGradient>
    <linearGradient
       gradientTransform="matrix(1,0,0,1,0,0)"
       osb:paint="solid"
       id="linearGradient863">
      <stop
         id="stop861"
         offset="0"
         style="stop-color:#2ca02c;stop-opacity:1;" />
    </linearGradient>
    <linearGradient
       gradientUnits="userSpaceOnUse"
       y2="33.414593"
       x2="35.206333"
       y1="33.414593"
       x1="26.759533"
       id="linearGradient865"
       xlink:href="#linearGradient863"
       gradientTransform="translate(-0.067399,-27.41228)" />
  </defs>
  <metadata
     id="metadata996">
    <rdf:RDF>
      <cc:Work
         rdf:about="">
        <dc:format>image/svg+xml</dc:format>
        <dc:type
           rdf:resource="http://purl.org/dc/dcmitype/StillImage" />
        <dc:title></dc:title>
      </cc:Work>
    </rdf:RDF>
  </metadata>
  <path
     d="M 5.639759,11.595002 4.065077,8.0006177 Q 3.842567,7.4871347 3.440339,7.2303927 3.046668,6.9650927 2.50751,6.9650927 H 2.105282 V 11.595002 H 0 V 0.4096207 h 3.260619 q 0.924271,0 1.67738,0.162604 0.753109,0.154045 1.283708,0.522041 0.5306,0.367996 0.813016,0.958502 0.290974,0.590506 0.290974,1.446312 0,0.61618 -0.17972,1.095431 -0.179719,0.479252 -0.504925,0.830132 -0.325206,0.342322 -0.778783,0.556274 -0.445019,0.213951 -0.975619,0.299532 0.410787,0.08558 0.753109,0.470693 0.342323,0.376554 0.684645,1.095431 L 8.113038,11.595002 Z M 5.117718,3.7044727 q 0,-0.821573 -0.522042,-1.181011 -0.522041,-0.359439 -1.566124,-0.359439 h -0.92427 v 3.157923 h 0.855805 q 0.48781,0 0.88148,-0.102696 0.402229,-0.102697 0.684645,-0.30809 0.282416,-0.205394 0.436461,-0.504926 0.154045,-0.30809 0.154045,-0.701761 z"
     style="font-style:normal;font-variant:normal;font-weight:bold;font-stretch:normal;font-size:17.52690125px;line-height:1.25;font-family:Consolas;-inkscape-font-specification:'Consolas Bold';letter-spacing:0px;word-spacing:0px;fill:url(#linearGradient918);fill-opacity:1;stroke:none;stroke-width:0.43817255"
     id="path1025" />
  <path
     id="path848"
     d="M 17.458145,0.4051427 V 11.590506 h 1.916679 V 8.1162994 3.4778229 l 0.6165,1.4376373 2.995166,6.6750458 h 2.567285 V 0.4051427 H 23.637096 V 3.4948753 8.4325585 L 23.097594,7.123596 20.042484,0.4051427 Z m 0.958598,0.7792799 c 0.047,0 0.0918,0.018468 0.125057,0.051676 0.03319,0.033298 0.05219,0.078108 0.05219,0.1250579 0,0.047104 -0.019,0.092393 -0.05219,0.1255739 -0.0332,0.03329 -0.0781,0.051676 -0.125057,0.051676 -0.047,0 -0.0924,-0.018468 -0.125574,-0.051676 -0.0332,-0.033205 -0.05168,-0.078494 -0.05168,-0.1255739 0,-0.046998 0.01839,-0.091707 0.05168,-0.1250579 0.0332,-0.033208 0.07861,-0.051676 0.125574,-0.051676 z m 0.958081,0 c 0.047,0 0.0918,0.018468 0.125057,0.051676 0.0332,0.033298 0.05219,0.078108 0.05219,0.1250579 0,0.047104 -0.019,0.092393 -0.05219,0.1255739 -0.0332,0.03329 -0.0781,0.051676 -0.125057,0.051676 -0.047,0 -0.0924,-0.018468 -0.125574,-0.051676 -0.0332,-0.033205 -0.05168,-0.078494 -0.05168,-0.1255739 0,-0.046998 0.01839,-0.091707 0.05168,-0.1250579 0.0332,-0.033208 0.07861,-0.051676 0.125574,-0.051676 z m 5.220353,0 c 0.047,0 0.0918,0.018468 0.125057,0.051676 0.0332,0.033298 0.05219,0.078108 0.05219,0.1250579 0,0.047104 -0.019,0.092393 -0.05219,0.1255739 -0.0332,0.03329 -0.0781,0.051676 -0.125057,0.051676 -0.047,0 -0.0924,-0.018468 -0.125574,-0.051676 -0.0332,-0.033205 -0.05168,-0.078494 -0.05168,-0.1255739 0,-0.046998 0.01839,-0.091707 0.05168,-0.1250579 0.0332,-0.033208 0.07861,-0.051676 0.125574,-0.051676 z m -6.178434,9.2118414 c 0.047,0 0.0918,0.01847 0.125057,0.05168 0.03319,0.0333 0.05219,0.07811 0.05219,0.125058 0,0.04709 -0.019,0.09239 -0.05219,0.125573 -0.0332,0.03329 -0.0781,0.05168 -0.125057,0.05168 -0.047,0 -0.0924,-0.01847 -0.125574,-0.05168 -0.0332,-0.03321 -0.05168,-0.07849 -0.05168,-0.125573 0,-0.047 0.01839,-0.09171 0.05168,-0.125058 0.0332,-0.03321 0.0786,-0.05168 0.125574,-0.05168 z m 5.220353,0 c 0.047,0 0.0918,0.01847 0.125057,0.05168 0.0332,0.0333 0.05219,0.07811 0.05219,0.125058 0,0.04709 -0.019,0.09239 -0.05219,0.125573 -0.0332,0.03329 -0.0781,0.05168 -0.125057,0.05168 -0.04701,0 -0.0924,-0.01847 -0.125573,-0.05168 -0.0332,-0.03321 -0.05168,-0.07849 -0.05168,-0.125573 0,-0.047 0.01839,-0.09171 0.05168,-0.125058 0.0332,-0.03321 0.07861,-0.05168 0.125573,-0.05168 z m 0.958081,0 c 0.047,0 0.0918,0.01847 0.125057,0.05168 0.0332,0.0333 0.05219,0.07811 0.05219,0.125058 0,0.04709 -0.019,0.09239 -0.05219,0.125573 -0.0332,0.03329 -0.0781,0.05168 -0.125057,0.05168 -0.047,0 -0.0924,-0.01847 -0.125574,-0.05168 -0.0332,-0.03321 -0.05168,-0.07849 -0.05168,-0.125573 0,-0.047 0.01839,-0.09171 0.05168,-0.125058 0.0332,-0.03321 0.07861,-0.05168 0.125574,-0.05168 z"
     style="font-style:normal;font-variant:normal;font-weight:bold;font-stretch:normal;font-size:17.52690125px;line-height:1.25;font-family:Consolas;-inkscape-font-specification:'Consolas Bold';letter-spacing:0px;word-spacing:0px;fill:url(#linearGradient918);fill-opacity:1;stroke:none;stroke-width:0.43817255" />
  <path
     id="path850"
     style="font-style:normal;font-variant:normal;font-weight:bold;font-stretch:normal;font-size:17.52690125px;line-height:1.25;font-family:Consolas;-inkscape-font-specification:'Consolas Bold';letter-spacing:0px;word-spacing:0px;fill:url(#linearGradient865);fill-opacity:1;stroke:none;stroke-width:0.43817255"
     d="M 31.159438,6.858117 V 5.1208322 h 3.979497 v 5.9649658 q -0.770226,0.359438 -1.608915,0.530599 -0.83869,0.171161 -1.822865,0.171161 -1.163897,0 -2.096725,-0.359438 -0.924269,-0.359438 -1.574684,-1.069757 -0.650412,-0.710319 -1.001292,-1.7629598 -0.34232,-1.0526411 -0.34232,-2.4390461 0,-1.394964 0.359436,-2.498953 0.367998,-1.103989 1.061201,-1.865657 0.70176,-0.770225 1.711611,-1.172453 1.018408,-0.402229 2.319234,-0.402229 0.770224,0 1.497659,0.136929 0.735994,0.128371 1.463428,0.35088 V 2.784482 q -0.633296,-0.2995319 -1.403522,-0.4878089 -0.761666,-0.196836 -1.540449,-0.196836 -0.787341,0 -1.394965,0.273858 -0.599062,0.2738579 -1.009851,0.778784 -0.402228,0.504925 -0.616178,1.240918 -0.205396,0.735993 -0.205396,1.660263 0,0.890038 0.162605,1.6089151 0.162603,0.7103179 0.522042,1.215244 0.367996,0.496367 0.941385,0.7616668 0.573391,0.2653001 1.394962,0.2653001 0.196837,0 0.342324,-0.0086 0.145486,-0.017121 0.273859,-0.04279 0.128368,-0.02567 0.239625,-0.05991 0.119812,-0.03423 0.248182,-0.07702 V 6.8580752 Z" />
  <path
     id="path1012"
     d="m 8.387899,0 c -0.07588,0.00106 -0.15948,0.033266 -0.214458,0.088366 -0.0758,0.0758 -0.07315,0.1657482 0.01085,0.3581188 0.207531,0.4753795 0.679076,0.8773663 1.274857,1.0867549 0.12006,0.042201 0.159501,0.065699 0.181901,0.1090374 0.01569,0.030401 0.0658,0.0771 0.111621,0.1038701 0.0955,0.0556 0.439814,0.1963024 0.677995,0.277503 0.0891,0.030398 0.161747,0.066381 0.161747,0.079581 -8e-6,0.013203 -0.113834,0.069604 -0.253214,0.1255739 -0.443119,0.1778291 -0.624742,0.3278081 -0.700732,0.5798079 -0.0544,0.1804405 -0.09108,0.4830365 -0.08217,0.6810957 0.01839,0.4093501 0.136664,0.5178954 0.986503,0.9048538 0.512122,0.233172 0.729781,0.3407198 0.747241,0.368972 0.025,0.0405 -0.172097,0.1119743 -1.208195,0.439764 -0.37969,0.1201208 -0.563736,0.2142357 -0.649056,0.3312477 -0.0295,0.0405 -0.07464,0.1464839 -0.09974,0.2356432 -0.0388,0.1374908 -0.04549,0.2084652 -0.04599,0.4671563 -5.29e-4,0.2882688 0.0021,0.3102239 0.04909,0.4015264 0.100258,0.1949079 0.364532,0.3512555 1.069702,0.6330341 0.226821,0.090601 0.420123,0.172593 0.429432,0.181901 0.02529,0.025294 -0.0406,0.060608 -0.435633,0.23513 -0.44814,0.1980697 -0.569303,0.2587307 -0.730704,0.3653525 -0.16903,0.1116594 -0.27186,0.2138124 -0.31626,0.3141927 -0.0766,0.1732597 -0.0656,0.6299756 0.0217,0.883666 0.10618,0.3086206 0.243805,0.3597037 1.105875,0.4128955 0.47688,0.029398 0.745731,0.05688 0.782382,0.079581 0.0355,0.021987 0.01379,0.086693 -0.120924,0.3632831 -0.22044,0.452261 -0.224031,0.496324 -0.04857,0.582396 l 0.05219,0.0181 c -0.0569,0.0711 -0.117695,0.140176 -0.184485,0.208256 -0.215232,0.219382 -0.417893,0.372719 -0.635103,0.481108 -0.26562,0.132561 -0.465588,0.166666 -0.709518,0.120406 -0.0705,-0.01339 -0.115398,-0.01289 -0.148828,0.0031 -0.0614,0.028 -0.109037,0.146926 -0.109037,0.272336 0,0.117499 0.0409,0.168638 0.150895,0.187068 0.0411,0.007 0.08367,0.01566 0.09457,0.02016 0.01079,0.004 0.130049,0.005 0.2651,0.0011 0.372621,-0.0109 0.618711,-0.09911 0.972551,-0.348816 0.22535,-0.15903 0.63859,-0.568915 0.782381,-0.775663 l 5.29e-4,-5.29e-4 0.168982,0.05943 c 0.116948,0.0274 0.186171,0.009 0.220141,-0.05839 0.0231,-0.0457 0.0473,-0.202501 0.0801,-0.515731 l -0.138493,-0.05012 c -0.004,0.005 -0.006,0.01214 -0.01137,0.01704 -0.0332,0.0333 -0.07861,0.05168 -0.125574,0.05168 -0.0469,0 -0.0919,-0.01839 -0.125057,-0.05168 -0.0332,-0.0332 -0.05219,-0.0785 -0.05219,-0.125574 0,-0.047 0.019,-0.0918 0.05219,-0.125055 0.0333,-0.0332 0.0781,-0.05168 0.125057,-0.05168 0.047,0 0.0924,0.01847 0.125574,0.05168 0.0333,0.0333 0.05168,0.0781 0.05168,0.125055 0,0.0021 -10e-4,0.0042 -10e-4,0.0062 l 0.09922,0.03617 c -0.004,-0.2354 -0.0793,-0.5565906 -0.196887,-0.7921994 -0.0787,-0.1577446 -0.162712,-0.2795455 -0.253731,-0.3839554 l -0.843877,0.1446927 c -0.006,0.037301 -0.02003,0.072834 -0.04703,0.099735 -0.0332,0.0332 -0.0781,0.052194 -0.125057,0.052194 -0.047,0 -0.09229,-0.018997 -0.125574,-0.052194 -0.0332,-0.0332 -0.05168,-0.078097 -0.05168,-0.1250553 0,-0.047001 0.01839,-0.092403 0.05168,-0.1255739 0.0332,-0.0332 0.07859,-0.051676 0.125574,-0.051676 0.047,0 0.0918,0.018468 0.125057,0.051676 0.01259,0.012594 0.02125,0.027908 0.02946,0.043407 L 11.554151,8.9746542 C 11.445442,8.8741734 11.324559,8.7972246 11.17898,8.7415933 c -0.074,-0.0283 -0.134368,-0.05923 -0.134358,-0.068728 0,-0.009 0.103231,-0.066299 0.22996,-0.1266084 0.31809,-0.1512014 0.493335,-0.2650596 0.620634,-0.4025582 0.139739,-0.1509316 0.159682,-0.2317618 0.146244,-0.5922142 -0.007,-0.1953075 -0.03405,-0.3688054 -0.07235,-0.5069444 l -0.289388,0.1111038 c 1.19e-4,0.00299 0.0021,0.00476 0.0021,0.00775 0,0.047001 -0.019,0.091908 -0.05219,0.1250553 -0.0332,0.0332 -0.07811,0.052194 -0.125057,0.052194 -0.047,0 -0.0924,-0.018997 -0.125574,-0.052194 -0.0333,-0.0332 -0.05168,-0.078108 -0.05168,-0.1250553 0,-0.047001 0.01847,-0.092392 0.05168,-0.1255739 0.0332,-0.0332 0.07859,-0.051676 0.125574,-0.051676 0.0469,-1.06e-5 0.09191,0.018468 0.125057,0.051676 0.004,0.004 0.0059,0.010292 0.01033,0.014975 l 0.296106,-0.1136889 c -0.01439,-0.036499 -0.02929,-0.071885 -0.04599,-0.098184 -0.101561,-0.1601496 -0.358359,-0.3271811 -0.763261,-0.4966123 -0.14763,-0.061799 -0.28082,-0.1234414 -0.295589,-0.1369404 -0.036,-0.032901 -0.006,-0.047707 0.313676,-0.1570964 0.40999,-0.1404302 0.679334,-0.2932403 0.856795,-0.4857591 0.0919,-0.0997 0.148476,-0.206584 0.182935,-0.3472656 L 11.874575,5.1025248 h -5.29e-4 c -0.004,0.00601 -0.006,0.012462 -0.01137,0.017568 -0.0332,0.0332 -0.0786,0.052194 -0.125574,0.052194 -0.047,0 -0.0919,-0.018997 -0.125057,-0.052194 -0.0333,-0.0332 -0.05219,-0.078097 -0.05219,-0.1250553 0,-0.047001 0.019,-0.092406 0.05219,-0.1255739 0.0332,-0.0332 0.0781,-0.051678 0.125057,-0.051678 0.047,0 0.0924,0.018468 0.125574,0.051678 0.0333,0.0332 0.05168,0.078602 0.05168,0.1255739 0,0.00212 -10e-4,0.00421 -10e-4,0.00619 l 0.290422,0.107487 c 0.01479,-0.099899 0.02418,-0.2110025 0.02429,-0.3539834 1.62e-4,-0.4363296 -0.06591,-0.6313514 -0.276986,-0.8175201 -0.005,-0.004 -0.0132,-0.00997 -0.0186,-0.014473 l -0.674894,0.1695 c -0.003,0.042698 -0.01974,0.083299 -0.05013,0.1136862 -0.0333,0.0332 -0.0781,0.052194 -0.125057,0.052194 -0.047,0 -0.09241,-0.018997 -0.125574,-0.052194 -0.0332,-0.0332 -0.05168,-0.078097 -0.05168,-0.1250554 0,-0.047001 0.01847,-0.092403 0.05168,-0.1255739 0.0332,-0.0332 0.0786,-0.051676 0.125574,-0.051676 0.047,0 0.0919,0.018468 0.125057,0.051676 0.009,0.009 0.01471,0.021458 0.0217,0.032554 L 11.824471,3.8385048 C 11.660033,3.7186539 11.425336,3.5766599 11.157845,3.4385289 10.976896,3.3450309 10.828666,3.2616417 10.828666,3.253011 c -1.1e-5,-0.018706 0.009,-0.021802 0.469739,-0.1875843 0.580061,-0.2086319 0.758163,-0.310687 0.831474,-0.476459 0.0373,-0.084198 0.03902,-0.1166204 0.02842,-0.4356312 -2.64e-4,-0.00799 -0.0011,-0.011113 -0.0021,-0.0186 -0.0021,0.00299 -0.0032,0.00579 -0.0062,0.00878 -0.0332,0.0332 -0.0785,0.052194 -0.125574,0.052194 -0.047,0 -0.0918,-0.018997 -0.125056,-0.052194 -0.0333,-0.0332 -0.05168,-0.078602 -0.05168,-0.1255739 0,-0.047001 0.01846,-0.091797 0.05168,-0.1250553 0.0333,-0.0332 0.0781,-0.052194 0.125056,-0.052194 0.0414,0 0.08,0.016881 0.111622,0.042892 v -5.246e-4 c -0.005,-0.00299 -0.01028,-0.00693 -0.0155,-0.010345 l 0.01292,-0.00982 c -0.01667,-0.1680607 -0.03958,-0.305509 -0.07958,-0.3896386 -0.077,-0.1622504 -0.339694,-0.2905231 -0.721403,-0.3524329 -0.120724,-0.019606 -0.406356,-0.027339 -0.68833,-0.02585 0.0087,-0.004 0.01614,-0.011139 0.02429,-0.016536 0.006,-0.005 0.01323,-0.00701 0.0186,-0.012409 0,0 5.29e-4,-5.292e-4 5.29e-4,-5.292e-4 0.0332,-0.0333 0.05219,-0.078094 0.05219,-0.1250553 0,-0.047101 -0.01889,-0.092406 -0.05219,-0.1255739 -0.01696,-0.017013 -0.03705,-0.02944 -0.05891,-0.03824 -0.02138,-0.009 -0.04421,-0.013441 -0.0677,-0.013441 -0.02315,0 -0.04569,0.00503 -0.06666,0.013441 -0.02159,0.009 -0.04204,0.02196 -0.05891,0.038756 -0.0332,0.0332 -0.05219,0.077997 -0.05219,0.125058 0,0.046998 0.019,0.092292 0.05219,0.1255739 0.01331,0.013308 0.03001,0.022093 0.04651,0.030488 -0.141409,0.00299 -0.274982,0.00796 -0.37207,0.017568 C 9.79066,1.1443747 9.768246,1.1424827 9.599786,1.0742837 9.323206,0.9623332 9.083332,0.8170848 8.916624,0.6603536 8.775384,0.5275751 8.750519,0.4923141 8.644289,0.2738132 8.539189,0.057654 8.520629,0.0310289 8.460838,0.011299 8.438538,0.004289 8.413578,2.39e-4 8.387978,4.51e-4 Z m 2.640665,2.4639322 c 0.047,0 0.0924,0.018468 0.125574,0.051676 0.0333,0.0333 0.05168,0.078097 0.05168,0.1250579 0,0.047098 -0.01847,0.092403 -0.05168,0.1255739 -0.0332,0.0332 -0.0786,0.051676 -0.125574,0.051676 -0.047,0 -0.0919,-0.018468 -0.125056,-0.051676 -0.0332,-0.0332 -0.05219,-0.078505 -0.05219,-0.1255739 0,-0.047001 0.019,-0.091797 0.05219,-0.1250579 0.0332,-0.0332 0.0781,-0.051676 0.125056,-0.051676 z m -1.25522,0.7208864 c 0.047,0 0.0918,0.018468 0.125057,0.051676 0.0332,0.0333 0.05219,0.078108 0.05219,0.1250579 0,0.047098 -0.019,0.092392 -0.05219,0.1255739 -0.0332,0.033298 -0.0781,0.051676 -0.125057,0.051676 -0.047,0 -0.0924,-0.018468 -0.125574,-0.051676 -0.0332,-0.0332 -0.05168,-0.078494 -0.05168,-0.1255739 0,-0.047001 0.01839,-0.091707 0.05168,-0.1250579 0.0332,-0.0332 0.07861,-0.051676 0.125574,-0.051676 z m 0.274919,2.3569612 c 0.0471,0 0.0918,0.018468 0.125056,0.051676 0.0333,0.0332 0.05219,0.078595 0.05219,0.1255739 0,0.047001 -0.01889,0.091808 -0.05219,0.1250579 -0.0332,0.0332 -0.078,0.051676 -0.125056,0.051676 -0.047,0 -0.09229,-0.018468 -0.125574,-0.051676 -0.0333,-0.0332 -0.05168,-0.078108 -0.05168,-0.1250579 0,-0.046998 0.01829,-0.092392 0.05168,-0.1255739 0.0332,-0.0332 0.07859,-0.051676 0.125574,-0.051676 z m -0.236678,0.564306 c 0.047,0 0.09231,0.018468 0.125573,0.051678 0.0333,0.0332 0.05168,0.078602 0.05168,0.1255739 0,0.046998 -0.01828,0.091895 -0.05168,0.1250553 -0.0332,0.0332 -0.0786,0.051676 -0.125573,0.051676 -0.0471,0 -0.0918,-0.018468 -0.125058,-0.051676 -0.0333,-0.0332 -0.05219,-0.078097 -0.05219,-0.1250553 0,-0.047001 0.01889,-0.092406 0.05219,-0.1255739 0.0332,-0.0332 0.078,-0.051678 0.125058,-0.051678 z m 1.258837,1.6138551 c 0.0471,0 0.0924,0.018997 0.125574,0.052194 0.0334,0.0332 0.05219,0.0781 0.05219,0.1250553 0,0.047001 -0.01889,0.092406 -0.05219,0.1255739 -0.0332,0.0332 -0.0785,0.051678 -0.125574,0.051678 -0.047,0 -0.0919,-0.018468 -0.125057,-0.051678 -0.0333,-0.0332 -0.05168,-0.078602 -0.05168,-0.1255739 0,-0.046995 0.01837,-0.091794 0.05168,-0.1250553 0.0332,-0.0332 0.0781,-0.052194 0.125057,-0.052194 z m -1.41335,0.8666136 c 0.047,0 0.09181,0.018997 0.125057,0.052194 0.0332,0.0332 0.05219,0.078097 0.05219,0.125058 0,0.046998 -0.01899,0.092395 -0.05219,0.1255712 -0.0332,0.033203 -0.07811,0.051678 -0.125057,0.051678 -0.047,0 -0.0923,-0.018468 -0.125574,-0.051678 -0.0332,-0.033197 -0.05168,-0.078592 -0.05168,-0.1255712 0,-0.047001 0.01847,-0.091898 0.05168,-0.125058 0.0333,-0.0332 0.07859,-0.052194 0.125574,-0.052194 z m 1.124479,0.5208985 c 0.01322,0.024792 0.02196,0.051599 0.02222,0.0801 -2.1e-4,-0.028601 -0.0091,-0.0552 -0.02222,-0.0801 z"
     style="fill:url(#linearGradient918);fill-opacity:1;stroke:none;stroke-width:0.15467258;stroke-linecap:round" />
  <path
     id="path1010"
     d="m 14.0413,0.2599319 v 5.292e-4 a 0.17571703,0.17571703 0 0 1 0.001,0 z m 0.001,5.292e-4 5.3e-4,5.291e-4 a 0.17571703,0.17571703 0 0 0 -0.0041,0 c 0.0468,1.403e-4 0.092,0.019103 0.125057,0.052192 0.0332,0.0332 0.05168,0.078097 0.05168,0.1250579 0,0.047001 -0.01848,0.092392 -0.05168,0.1255739 -0.0332,0.0332 -0.07861,0.051676 -0.125574,0.051676 -0.0351,0 -0.06742,-0.013044 -0.09612,-0.032038 l -0.129191,0.1012851 0.202571,-0.057362 1.41025,0.7973668 -1.245919,1.6758682 0.01499,0.017066 c -0.02061,0.009 -0.03961,0.021616 -0.05581,0.037724 0.0332,-0.0332 0.0781,-0.051676 0.125058,-0.051676 0.0469,0 0.09241,0.018468 0.125573,0.051676 0.0333,0.0333 0.05168,0.078108 0.05168,0.1250579 0,0.046998 -0.01847,0.092392 -0.05168,0.1255739 -0.0332,0.0332 -0.0786,0.051676 -0.125573,0.051676 -0.047,0 -0.0918,-0.018468 -0.125058,-0.051676 -0.009,-0.009 -0.01471,-0.02114 -0.0217,-0.032041 l -0.01292,0.00413 a 0.17571703,0.17571703 0 0 0 0.11834,0.085265 l 1.067118,0.71882 0.623218,0.9208744 -1.472262,0.743622 -0.154513,0.030491 0.07596,0.027906 c 0.004,-0.005 0.006,-0.011324 0.01085,-0.016007 0.0332,-0.0332 0.0785,-0.052192 0.125574,-0.052192 0.047,0 0.0918,0.018997 0.125057,0.052192 0.0333,0.0332 0.05219,0.078097 0.05219,0.1250579 0,0.047001 -0.019,0.092403 -0.05219,0.1255739 -0.0117,0.011589 -0.02565,0.019553 -0.03979,0.027387 l 1.606621,-0.811837 a 0.17571703,0.17571703 0 0 0 0.151411,-0.2356432 0.17571703,0.17571703 0 0 0 -0.04754,-0.078031 L 15.594696,4.0049704 a 0.17571703,0.17571703 0 0 0 -0.06615,-0.085783 0.17571703,0.17571703 0 0 0 -0.03307,-0.021696 L 14.514659,3.237065 15.80812,1.497636 c -0.0331,0.032001 -0.0769,0.050128 -0.12299,0.050128 -0.047,0 -0.09239,-0.018468 -0.125574,-0.051676 -0.0333,-0.0332 -0.05219,-0.078605 -0.05219,-0.1255739 0,-0.047001 0.019,-0.091898 0.05219,-0.125058 0.0332,-0.0332 0.07859,-0.051676 0.125574,-0.051676 0.0466,0 0.0909,0.018468 0.124023,0.05116 a 0.17571703,0.17571703 0 0 0 -0.0026,-0.0031 0.17623953,0.17623953 0 0 0 -5.29e-4,0 0.17623953,0.17623953 0 0 0 -0.0062,-0.00569 0.17571703,0.17571703 0 0 0 -0.0217,-0.016007 0.17623953,0.17623953 0 0 0 -0.0062,-0.00413 l -5.29e-4,-5.292e-4 a 0.17571703,0.17571703 0 0 0 -0.0155,-0.00826 l -1.60662,-0.9095052 a 0.17571703,0.17571703 0 0 0 -0.08992,-0.035658 0.17571703,0.17571703 0 0 0 -0.0083,-5.291e-4 0.17571703,0.17571703 0 0 0 -0.0088,-0.00106 z m 0.541569,5.9066164 -0.001,-5.291e-4 h -5.29e-4 c -0.02588,0.014208 -0.0537,0.024289 -0.08372,0.024289 -0.0471,0 -0.09241,-0.018468 -0.125573,-0.051678 -0.004,-0.004 -0.0064,-0.010292 -0.01033,-0.014975 l -0.216008,0.083201 c -0.007,0.010107 -0.01145,0.021272 -0.02015,0.029972 -0.0118,0.0118 -0.02662,0.018971 -0.04082,0.026871 v 5.291e-4 l 0.01447,0.07855 1.466061,0.6206331 -0.115239,1.0381801 -0.991671,0.2795693 0.05633,0.3085094 c 0.0381,0.005 0.0743,0.020135 0.101803,0.04754 a 0.1760105,0.1760105 0 0 0 -0.03307,-0.026352 l 1.002006,-0.2811198 a 0.17571703,0.17571703 0 0 0 0.163297,-0.068212 0.17571703,0.17571703 0 0 0 0.001,-5.291e-4 0.17583283,0.17583283 0 0 0 0.04289,-0.1777683 L 15.93006,6.8724636 a 0.17571703,0.17571703 0 0 0 0.0026,-0.017568 c -5.29e-4,0.0464 -0.01868,0.091104 -0.05168,0.1240234 -0.0332,0.0332 -0.0785,0.051676 -0.125574,0.051676 -0.0469,0 -0.0918,-0.018468 -0.125057,-0.051676 -0.0332,-0.0333 -0.05219,-0.078602 -0.05219,-0.1255739 -9.9e-5,-0.047098 0.019,-0.091895 0.05219,-0.1250553 0.0333,-0.0333 0.0781,-0.052194 0.125057,-0.052194 0.0471,0 0.0924,0.018891 0.125574,0.052194 0.0333,0.033099 0.05148,0.0776 0.05168,0.1245394 A 0.17571703,0.17571703 0 0 0 15.795196,6.6786785 Z M 14.037683,0.2609664 a 0.17571703,0.17571703 0 0 0 -0.01343,5.292e-4 0.17571703,0.17571703 0 0 0 -0.06305,0.016536 l -1.78232,0.5048779 a 0.17571703,0.17571703 0 0 0 -0.01964,0.00619 c 0.0213,-0.009 0.0442,-0.013441 0.0677,-0.013441 0.0471,0 0.0919,0.018468 0.125057,0.051676 0.0334,0.0332 0.05219,0.077997 0.05219,0.1250579 0,0.0318 -0.01148,0.061267 -0.02739,0.088366 l 0.03617,0.041341 1.123445,-0.3183255 0.336931,-0.2640674 c -0.007,-0.019394 -0.0124,-0.039979 -0.0124,-0.060979 0,-0.047001 0.019,-0.091898 0.05219,-0.1250553 0.0331,-0.033102 0.0777,-0.052094 0.12454,-0.052194 z m -1.878438,0.5276162 a 0.17571703,0.17571703 0 0 0 -0.104387,0.1085189 h 0.0057 c 0.009,-0.026009 0.02154,-0.05048 0.04134,-0.070279 0.01659,-0.016589 0.03606,-0.02944 0.05736,-0.03824 z m -0.10542,0.2180749 a 0.17571703,0.17571703 0 0 0 0.171049,0.1219544 c -0.0462,-5.292e-4 -0.0903,-0.018468 -0.12299,-0.05116 -0.0199,-0.019791 -0.03274,-0.044596 -0.04134,-0.070795 z m 0.313676,0.048059 c -0.005,0.00699 -0.009,0.01614 -0.0155,0.022728 h 5.29e-4 c 0.007,-0.00699 0.01048,-0.014843 0.01499,-0.022728 z m -0.0708,0.059428 -5.29e-4,5.292e-4 h 0.0016 z m -0.0083,0.0031 c -0.01881,0.00701 -0.03841,0.011589 -0.05891,0.01188 a 0.17571703,0.17571703 0 0 0 0.04496,-0.00775 z m 3.522266,0.1286748 c 0.0155,0.01561 0.02747,0.034044 0.03617,0.053745 a 0.17623953,0.17623953 0 0 0 -0.0036,-0.00775 0.17571703,0.17571703 0 0 0 -5.3e-4,-0.00212 0.17623953,0.17623953 0 0 0 -0.01809,-0.028422 0.17571703,0.17571703 0 0 0 -0.01344,-0.015505 z m 0.03927,0.061497 c 0.007,0.018098 0.01065,0.037243 0.01137,0.056843 a 0.17623953,0.17623953 0 0 0 -0.01137,-0.056843 z m 0.01085,0.069244 c -7.94e-4,0.020399 -0.004,0.040828 -0.01188,0.059428 a 0.17623953,0.17623953 0 0 0 0.01188,-0.059428 z m -0.01499,0.066146 c -0.008,0.017515 -0.01884,0.033343 -0.03204,0.047543 a 0.17623953,0.17623953 0 0 0 0.03204,-0.047543 z M 14.11258,3.1899876 a 0.17571703,0.17571703 0 0 0 -0.0021,0.00362 0.17571703,0.17571703 0 0 0 -0.0279,0.077515 l 0.0067,-0.00212 c 0.0021,-0.028001 0.01153,-0.053716 0.02584,-0.077515 z m 1.305863,0.6903958 c 0.047,0 0.09229,0.018997 0.125574,0.052194 0.0333,0.033301 0.05168,0.078097 0.05168,0.125058 0,0.047098 -0.01846,0.091895 -0.05168,0.1250553 -0.0333,0.033301 -0.07859,0.052194 -0.125574,0.052194 -0.0471,0 -0.09181,-0.018891 -0.125056,-0.052194 -0.0333,-0.0332 -0.05219,-0.077997 -0.05219,-0.1250553 0,-0.047001 0.019,-0.091797 0.05219,-0.125058 0.0332,-0.0332 0.07801,-0.052194 0.125056,-0.052194 z m 0.750859,1.112594 c 0.047,0 0.0919,0.018468 0.125057,0.051679 0.0333,0.033295 0.05219,0.078602 0.05219,0.1255712 0,0.047101 -0.019,0.091898 -0.05219,0.125058 -0.0332,0.0333 -0.0781,0.052194 -0.125057,0.052194 -0.047,0 -0.0924,-0.018891 -0.125574,-0.052194 -0.0333,-0.0332 -0.05168,-0.077997 -0.05168,-0.125058 0,-0.046998 0.01847,-0.092305 0.05168,-0.1255712 0.0332,-0.033203 0.0786,-0.051679 0.125574,-0.051679 z m -2.086694,0.9239753 -0.001,5.292e-4 -0.0925,0.018098 a 0.17571703,0.17571703 0 0 0 -0.0036,0 0.17571703,0.17571703 0 0 0 -0.134359,0.2687187 l 0.0026,-0.00106 c -0.01701,-0.027599 -0.02894,-0.057949 -0.02894,-0.090951 0,-0.047001 0.01889,-0.0919 0.05219,-0.1250553 0.0332,-0.033301 0.0786,-0.052194 0.125574,-0.052194 0.047,0 0.0919,0.018997 0.125057,0.052194 0.02561,0.0254 0.03939,0.058116 0.04599,0.093017 l 0.149861,-0.057878 c -1.51e-4,-0.00299 -0.0021,-0.00579 -0.0021,-0.00878 0,-0.00299 0.0011,-0.00474 0.0021,-0.00775 z m -0.187069,0.3338301 c 0.0059,0.004 0.01139,0.010028 0.01809,0.013441 0.0011,7.938e-4 0.0032,2.646e-4 0.0052,0.00159 -0.008,-0.004 -0.01566,-0.00997 -0.02325,-0.014975 z m 0.0615,0.029456 -5.29e-4,5.292e-4 -0.0021,0.00106 0.02584,0.010345 -0.0021,-0.00775 c -0.0068,-0.00106 -0.01423,-0.00212 -0.02119,-0.00413 z m 1.655196,1.6836179 c 0.0471,0 0.0918,0.018468 0.125057,0.051676 0.0333,0.0333 0.05219,0.078605 0.05219,0.1255738 0,0.047101 -0.019,0.091898 -0.05219,0.125058 -0.0333,0.0332 -0.078,0.052192 -0.125057,0.052192 -0.047,0 -0.0923,-0.018997 -0.125573,-0.052192 -0.0333,-0.0332 -0.05168,-0.077999 -0.05168,-0.125058 0,-0.047001 0.01846,-0.092302 0.05168,-0.1255738 0.0333,-0.0332 0.0786,-0.051676 0.125573,-0.051676 z m -1.258839,0.3477842 -0.5302,0.149344 A 0.17571703,0.17571703 0 0 0 13.66041,8.6139485 l 0.01033,-0.00212 c 0.006,-0.0372 0.02013,-0.072837 0.04702,-0.099737 0.0332,-0.0332 0.078,-0.051676 0.125058,-0.051676 0.0469,0 0.0923,0.018468 0.125573,0.051676 0.0333,0.0333 0.05168,0.078605 0.05168,0.1255739 0,0.047101 -0.01846,0.091898 -0.05168,0.1250579 -0.0333,0.0332 -0.0786,0.052194 -0.125573,0.052194 -5.3e-4,0 -0.0011,-5.291e-4 -0.0021,-5.291e-4 l -5.3e-4,0.00106 0.567407,0.1095533 1.12913,1.0945075 -1.004589,1.009758 -0.33383,-0.02119 0.26355,0.0956 c 0.005,-0.006 0.007,-0.01288 0.01188,-0.0181 0.0332,-0.0332 0.0786,-0.05168 0.125574,-0.05168 0.047,0 0.0918,0.01847 0.125057,0.05168 0.0333,0.0332 0.05219,0.07859 0.05219,0.125574 0,0.0438 -0.01794,0.08491 -0.04703,0.117306 l 1.13898,-1.144639 a 0.17571703,0.17571703 0 0 0 0.06356,-0.267684 0.17571703,0.17571703 0 0 0 -0.01964,-0.022225 c 0.0332,0.0332 0.05168,0.078097 0.05168,0.125058 0,0.047 -0.01847,0.0924 -0.05168,0.125574 -0.0332,0.0332 -0.07859,0.05168 -0.125574,0.05168 -0.047,0 -0.09191,-0.01847 -0.125056,-0.05168 -0.0333,-0.0332 -0.05219,-0.07861 -0.05219,-0.125574 0,-0.047001 0.019,-0.091898 0.05219,-0.125058 0.0332,-0.0333 0.07811,-0.052194 0.125056,-0.052194 0.0469,0 0.09239,0.018997 0.125574,0.052194 A 0.17571703,0.17571703 0 0 0 15.892341,9.875814 L 14.629368,8.6510811 a 0.1760105,0.1760105 0 0 0 -0.01137,-0.012912 c 0.033,0.0332 0.05116,0.077798 0.05116,0.1245394 0,0.047001 -0.01847,0.092392 -0.05168,0.1255739 -0.0333,0.0332 -0.07859,0.051676 -0.125573,0.051676 -0.0471,0 -0.09191,-0.018468 -0.125057,-0.051676 -0.0333,-0.0332 -0.05219,-0.078594 -0.05219,-0.1255739 0,-0.047001 0.01889,-0.091908 0.05219,-0.125058 0.01259,-0.012594 0.02801,-0.020743 0.04341,-0.028937 -5.29e-4,2.593e-4 -4.76e-4,1.27e-4 -0.0016,5.292e-4 z m -0.687813,0.3265963 c 0,0.029099 0.009,0.056031 0.02274,0.081132 -0.01331,-0.025188 -0.02274,-0.052033 -0.02274,-0.081132 z m 0.02274,0.081648 -0.0067,0.00106 a 0.17571703,0.17571703 0 0 0 0.03772,0.04754 0.17571703,0.17571703 0 0 0 0.01757,0.013943 l 0.0021,-0.00516 c -0.007,-0.005 -0.0147,-0.00804 -0.02067,-0.013943 -0.01259,-0.012594 -0.02167,-0.028009 -0.02997,-0.043408 z m -0.697115,2.2133 a 0.17597146,0.17597146 0 0 0 -0.0036,0.351917 c -0.0428,-0.003 -0.08361,-0.0191 -0.114205,-0.04961 -0.0332,-0.0332 -0.05219,-0.07859 -0.05219,-0.125573 0,-0.047 0.01899,-0.0919 0.05219,-0.125056 0.0327,-0.0326 0.0764,-0.05098 0.122473,-0.05168 a 0.17571703,0.17571703 0 0 0 -0.0041,0 z m 0.12299,0.0067 -0.01085,0.03101 c -0.0011,-0.0011 -0.0031,-0.0011 -0.0041,-0.0021 0.008,0.006 0.01728,0.009 0.02429,0.01603 0.0333,0.0332 0.05219,0.07811 0.05219,0.125056 0,0.047 -0.019,0.09239 -0.05219,0.125574 -0.032,0.0319 -0.07531,0.04935 -0.120406,0.05064 l 1.525488,0.09663 a 0.17571703,0.17571703 0 0 0 0.188619,-0.04082 c -0.0324,0.0291 -0.07351,0.04702 -0.117306,0.04702 -0.047,0 -0.0924,-0.019 -0.125573,-0.05219 -0.0333,-0.0332 -0.05168,-0.07811 -0.05168,-0.125056 0,-0.0021 0.0016,-0.0037 0.0016,-0.0067 l -0.610258,-0.220661 h -5.29e-4 z"
     style="fill:url(#linearGradient863);fill-opacity:1;stroke:none;stroke-width:0.15467258;stroke-linecap:round" />
  <path
     id="path1095-6-5-4-0-4-1-6-6-7-3-6"
     d="m 13.913925,0.5633647 c 0,0 0,5.29e-4 0,5.29e-4 0.008,0.008 0.0192,0.0132 0.0289,0.0196 l 5.29e-4,-5.29e-4 c -0.01,-0.006 -0.021,-0.0111 -0.0295,-0.0196 z m -0.10025,0.12144 -0.27647,0.0786 -0.83147,0.65164 -0.29197,-0.33332 -0.11576,0.0331 0.32195,0.36794 -0.48525,0.37982 c 7.94e-4,0.007 0.002,0.0127 0.003,0.0202 0.005,0.003 0.01,0.005 0.0139,0.009 0.0186,0.0185 0.0316,0.0415 0.0403,0.0656 l 0.50074,-0.39274 1.42111,1.624711 a 0.17571703,0.17571703 0 0 1 0.0258,-0.0336 c 0,0 5.29e-4,-5.29e-4 5.29e-4,-5.29e-4 l 0.04079,-0.0548 -1.40249,-1.603521 z m -3.08457,0.20153 c 0.006,0.0174 0.0109,0.035 0.0109,0.0537 0,0.019 -0.005,0.0375 -0.0109,0.0553 l 1.32551,0.0114 a 0.17571703,0.17571703 0 0 1 10e-4,-0.109561 z m -0.18706,0.003 a 0.05472486,0.05472486 0 0 0 -0.003,0.002 0.05472486,0.05472486 0 0 1 0.004,-0.002 0.05472486,0.05472486 0 0 0 -10e-4,0 z m 0.004,0.10181 a 0.05472486,0.05472486 0 0 0 0.004,0.001 0.05472486,0.05472486 0 0 1 -0.004,-0.001 z m 3.53673,2.279961 -1.05678,0.26561 -1.20148,0.30179 c 0.0409,0.0298 0.0767,0.0576 0.108,0.0842 l 0.46147,-0.11576 1.71101,-0.42891 a 0.17571703,0.17571703 0 0 1 -0.0222,-0.10697 z m 0.015,0.062 c 0.005,0.0149 0.0117,0.0281 0.0202,0.0413 h 5.29e-4 c -0.008,-0.0131 -0.0153,-0.0269 -0.0207,-0.0413 z m -2.83807,0.74776 c -1.8e-4,0.004 -0.002,0.007 -0.003,0.0114 h 5.29e-4 c 2.6e-4,-0.004 0.002,-0.007 0.002,-0.0114 z m 0.65319,0.920351 c -0.002,0.0374 -0.0158,0.0721 -0.0388,0.10129 h 5.3e-4 c 0.0229,-0.0293 0.0374,-0.0638 0.0388,-0.10129 z m 0.29094,0.10749 c -0.006,0.0375 -0.011,0.0755 -0.0191,0.10852 l 1.89756,0.700221 h 5.29e-4 l 0.20412,-0.0403 z m 1.64744,1.095541 -1.91513,0.73484 c 0.0124,0.0314 0.0231,0.0675 0.0336,0.10542 l 1.98541,-0.76274 -0.006,-0.003 c 0.003,7.94e-4 0.006,7.94e-4 0.009,0.002 -0.0132,-0.004 -0.0261,-0.009 -0.0382,-0.0145 0.002,10e-4 0.003,0.002 0.005,0.003 a 0.17620092,0.17620092 0 0 1 -0.003,-0.002 0.17571703,0.17571703 0 0 1 -0.007,-0.004 0.17571703,0.17571703 0 0 1 -0.003,-0.002 0.17620092,0.17620092 0 0 1 -0.005,-0.003 0.17571703,0.17571703 0 0 1 -0.002,-0.002 0.17620092,0.17620092 0 0 1 -0.0129,-0.009 0.17571703,0.17571703 0 0 1 -0.009,-0.007 c 0.004,0.004 0.009,0.006 0.0134,0.009 -0.006,-0.004 -0.013,-0.008 -0.0186,-0.0134 -0.006,-0.005 -0.008,-0.0126 -0.0124,-0.0191 0.003,0.005 0.005,0.0114 0.01,0.016 a 0.17571703,0.17571703 0 0 1 -0.0233,-0.03 z m 0.23565,0.0605 c -0.026,0.0144 -0.0539,0.0248 -0.0842,0.0248 0.0303,0 0.0583,-0.01 0.0842,-0.0243 z m -0.10594,0.0279 0.3731,2.018991 0.10594,-0.0294 -0.35863,-1.938381 z m -0.31988,2.321301 -2.10633,0.3607 c 0.0308,0.0285 0.0601,0.0621 0.0889,0.0951 l 2.03812,-0.34882 a 0.17571703,0.17571703 0 0 1 -0.0207,-0.10697 z m 0.078,0.16278 v 5.29e-4 c 0.0151,0.0114 0.0308,0.0208 0.0486,0.0269 -0.0172,-0.007 -0.0336,-0.0161 -0.0486,-0.0274 z m 0.0486,0.0274 c 0.0175,0.006 0.0354,0.0107 0.0543,0.0108 v -5.29e-4 c -0.0191,-1.3e-4 -0.0371,-0.004 -0.0543,-0.0103 z m -0.0506,-0.0217 -0.62631,1.8314123 -1.01648,-0.367941 c 5.29e-4,0.0363 0.004,0.0762 10e-4,0.107491 -5.29e-4,0.004 -5.29e-4,0.005 -10e-4,0.009 l 0.98082,0.3545 -0.0739,0.21601 a 0.17571703,0.17571703 0 0 1 0.008,0 l 0.1049,0.007 h 5.3e-4 l 0.0631,-0.18552 0.63563,0.22996 h 5.29e-4 l 0.38551,0.0243 -0.98599,-0.3576 0.62787,-1.8350313 -0.008,-0.002 a 0.17571703,0.17571703 0 0 1 -0.0961,-0.032 z"
     style="fill:url(#linearGradient2212);fill-opacity:1;stroke:none;stroke-width:0.15467261;stroke-linecap:round" />
  <path
     id="path1347"
     d="m 18.582108,1.3006937 c 0.0071,0.019262 0.01188,0.039505 0.01188,0.060463 0,0.020876 -0.0048,0.041196 -0.01188,0.060463 h 0.627352 c -0.0069,-0.019262 -0.01188,-0.0396 -0.01188,-0.060463 0,-0.020981 0.0049,-0.041201 0.01188,-0.060463 z m 0.917256,0.1865525 c -0.02945,0.0293 -0.06855,0.044495 -0.109554,0.048059 l 4.122746,8.9121188 c 0.02942,-0.02903 0.0686,-0.04449 0.109554,-0.04806 z m -1.143082,0.039275 v 8.8816278 c 0.0194,-0.007 0.0395,-0.01188 0.06046,-0.01188 0.02115,0 0.04157,0.0047 0.06098,0.01188 V 1.5265209 c -0.01942,0.00712 -0.03984,0.01188 -0.06098,0.01188 -0.02083,0 -0.04119,-0.00495 -0.06046,-0.01188 z m 6.177917,0 v 8.8816278 c 0.01954,-0.0071 0.03984,-0.01188 0.06098,-0.01188 0.02081,0 0.04081,0.005 0.05994,0.01188 V 1.5265209 c -0.01914,0.00691 -0.03916,0.01188 -0.05994,0.01188 -0.021,0 -0.04157,-0.00484 -0.06098,-0.01188 z m -0.731738,8.9870478 c 0.0069,0.019 0.01189,0.03881 0.01189,0.05943 0,0.02122 -0.0046,0.04195 -0.01189,0.06149 h 0.627352 c -0.0072,-0.01955 -0.01188,-0.04029 -0.01188,-0.06149 0,-0.02064 0.0051,-0.04045 0.01188,-0.05943 z"
     style="color:#000000;font-style:normal;font-variant:normal;font-weight:normal;font-stretch:normal;font-size:medium;line-height:normal;font-family:sans-serif;font-variant-ligatures:normal;font-variant-position:normal;font-variant-caps:normal;font-variant-numeric:normal;font-variant-alternates:normal;font-feature-settings:normal;text-indent:0;text-align:start;text-decoration:none;text-decoration-line:none;text-decoration-style:solid;text-decoration-color:#000000;letter-spacing:normal;word-spacing:normal;text-transform:none;writing-mode:lr-tb;direction:ltr;text-orientation:mixed;dominant-baseline:auto;baseline-shift:baseline;text-anchor:start;white-space:normal;shape-padding:0;clip-rule:nonzero;display:inline;overflow:visible;visibility:visible;opacity:1;isolation:auto;mix-blend-mode:normal;color-interpolation:sRGB;color-interpolation-filters:linearRGB;solid-color:#000000;solid-opacity:1;vector-effect:none;fill:url(#linearGradient2212);fill-opacity:1;fill-rule:nonzero;stroke:none;stroke-width:0.12144375;stroke-linecap:butt;stroke-linejoin:miter;stroke-miterlimit:4;stroke-dasharray:none;stroke-dashoffset:0;stroke-opacity:1;color-rendering:auto;image-rendering:auto;shape-rendering:auto;text-rendering:auto;enable-background:accumulate" />
</svg>
